<?xml version="1.0" encoding="utf-8"?>
<!-- Generator: Adobe Illustrator 16.0.0, SVG Export Plug-In . SVG Version: 6.00 Build 0)  -->
<!DOCTYPE svg PUBLIC "-//W3C//DTD SVG 1.1//EN" "http://www.w3.org/Graphics/SVG/1.1/DTD/svg11.dtd">
<svg version="1.1" id="Layer_1" xmlns="http://www.w3.org/2000/svg" xmlns:xlink="http://www.w3.org/1999/xlink" x="0px" y="0px"
	 width="500px" height="500px" viewBox="0 0 500 500" enable-background="new 0 0 500 500" xml:space="preserve">
<g>
	<path d="M69.5,147.6c0.6,0,1.3,0,1.9,0c1.7,2.4,6.4,7.3,4.5,11.3c-0.9-0.1-1.7-0.2-2.6-0.2c-0.9-2-1.7-3.9-2.6-5.9
		c-0.1,0.2-0.2,0.3-0.2,0.5c-4.2,2.4-0.9,5.9-2.1,9.9C59.7,162.1,67.8,149.7,69.5,147.6z"/>
	<path d="M398.1,148.7c0.601,0.1,1.301,0.2,1.9,0.2c1,2.1,7.7,8.7,4,11.1c-2.8-0.7-3.3-3.6-4.5-5.9c-0.2,0.1-0.5,0.2-0.7,0.2
		c-3,3.9,0,6-1.2,10.1c-0.5,0.1-0.899,0.2-1.399,0.2c-0.101-0.2-0.2-0.3-0.2-0.5C391,159.1,395.6,152.8,398.1,148.7z"/>
	<path d="M237.2,150.6c0.7,0.1,1.4,0.2,2.1,0.2c1.7,3.6,4.5,5.5,4.9,10.6c-0.2,0.2-0.3,0.3-0.5,0.5c-0.9-0.1-1.9-0.2-2.8-0.2
		c-0.7-1.8-1.4-3.6-2.1-5.4c-0.2,0.1-0.5,0.2-0.7,0.2c-3.2,3.5-0.2,6.4-1.9,9.9c-0.4,0.1-0.8,0.2-1.2,0.2
		C230.3,160.3,234.7,155.7,237.2,150.6z"/>
	<path d="M88.5,150.9c3.9,0.1,7.3,4.5,6.6,8.5c-0.9,0.2-1.9,0.3-2.8,0.5c-1.1-1.8-2.2-3.6-3.3-5.4c-0.2,0.1-0.3,0.2-0.5,0.2
		c-1.6,1.8-2.6,2.5-3.5,5.2c-0.5-0.1-1.1-0.2-1.6-0.2c-0.1-0.1-0.2-0.2-0.2-0.2C83,154.6,85.8,152.7,88.5,150.9z"/>
	<path d="M416.7,150.9c4.1,0,7.7,4.2,7.1,8.2c-0.2,0.2-0.3,0.3-0.5,0.5c-0.6,0.2-1.3,0.3-1.899,0.5c-1.301-1.8-2.7-3.6-4-5.4
		c-0.2,0.1-0.301,0.2-0.5,0.2c-1.5,1.8-2.4,3.1-3.5,5.4c-0.5-0.2-1.101-0.3-1.601-0.5C411.1,155.4,414.2,153,416.7,150.9z"/>
	<path d="M437.1,152.5c3.9,0.4,5.2,6.5,3.301,10.1c-0.801,0.1-1.601,0.2-2.4,0.2c-0.5-1.9-0.9-3.8-1.4-5.6
		c-0.1,0.2-0.199,0.3-0.199,0.5c-3,1.6-2.801,3.7-3.301,7.5c-0.699,0.2-1.399,0.3-2.1,0.5C427.8,159.1,433.9,155.6,437.1,152.5z"/>
	<path d="M109,153.4c2.4,0.6,5.3,8.5,1.9,10.3c-0.5,0.1-1.1,0.2-1.6,0.2c-0.4-1.9-0.8-3.8-1.2-5.6c-3.4,1.6-3.2,3.9-4.5,7.8
		c-0.1,0.1-0.2,0.2-0.2,0.2c-0.5,0-1.1,0-1.6,0C99.2,159.2,104.8,156.1,109,153.4z"/>
	<path d="M255.8,153.4c4.4,0.2,6.5,3.7,7.3,7.5c-0.199,0.3-0.3,0.6-0.5,0.9c-1,0.1-2,0.2-3.1,0.2c-0.9-2-1.5-3.8-3.3-4.9
		c-0.101,0.1-0.2,0.2-0.2,0.2c-1.6,1.6-2.7,2.7-3.5,5.2c-0.6-0.1-1.3-0.2-1.9-0.2C250,158.1,253.3,155.5,255.8,153.4z"/>
	<path d="M276.5,155.6c3.3,0.9,4.3,6.8,2.6,10.3c-0.8,0.1-1.6,0.2-2.399,0.2c-0.3-1.9-0.601-3.8-0.9-5.6c-4.6,0.5-2.2,7.9-6.399,8.2
		C266,162,272.7,158.3,276.5,155.6z"/>
	<path d="M452.4,158.1c0.5,0.2,1.1,0.3,1.6,0.5c0.8,5.9-0.1,12.4-4.5,14.1c-0.7-0.4-1.4-0.8-2.1-1.2c-0.2-0.5-0.301-1.1-0.5-1.6
		c2.199-1.3,3.1-3,3.8-5.9c-3.8,0.9-7.601,4-8.5,7.8c-0.5,0-1.101,0-1.601,0c-0.199-0.2-0.3-0.3-0.5-0.5
		C439.8,162.8,448.4,162.8,452.4,158.1z"/>
	<path d="M76.3,160c13.9,1.6,1.9,24.3-8.2,12.9c0.1-0.7,0.2-1.4,0.2-2.1c0.2,0,0.5,0,0.7,0c2-0.6,14.8,3.5,9.4-6.8
		c-2.2-0.9-4.3,0.3-5.9,1.4c0.1,0.5,0.2,0.9,0.2,1.4c0.3,0.2,0.6,0.5,0.9,0.7c1.1-0.5,2.2-1.1,3.3-1.6c0.1,0.3,0.2,0.6,0.2,0.9
		c0.2,0.5,0.3,1.1,0.5,1.6c-0.5,0.5-0.9,1.1-1.4,1.6c-1.4,0.1-2.8,0.2-4.2,0.2c-1-1.3-2-2.5-3.1-3.8C69.4,162.1,72.9,161.5,76.3,160
		z"/>
	<path d="M123.6,160c0.3,0,0.6,0,0.9,0c2.7,4.5-0.3,13-4.2,14.3c-0.8-0.3-1.6-0.6-2.4-0.9c-0.1-0.6-0.2-1.3-0.2-1.9
		c2.4-1,3.2-3,4-5.6c-0.1-0.1-0.2-0.2-0.2-0.2c-4.2,1.9-6.5,5.6-9.4,7.3c-0.5-0.2-0.9-0.3-1.4-0.5
		C110.8,163.7,119.3,164.6,123.6,160z"/>
	<path d="M404.4,160.7c8.699-0.4,10,13.4,2.399,15.1c4.4,2.6,10.4,5.3,11.5,11.1c-0.2,0.2-0.5,0.3-0.7,0.5
		c-4.199,0-5.199-3.3-7.8-5.2c0,2.1,0,4.2,0,6.4c1.5,1.3,3.4,1.5,4,3.8c-0.2,0.2-0.3,0.3-0.5,0.5c-8.6-0.5-5.6-5-6.399-12
		c-0.2-2.4-1.5-2.2-0.9-4.7c-4.6,0.5-8.6,0.2-8-4c2.6-0.2,4.6,1.8,7.8,0.7c3.8-1.3,4.601-6.8,0.7-8.7c-2.3,0.4-4.8,1.4-4.5,3.8
		c0.5,0.2,0.9,0.5,1.4,0.7c0.899-0.7,1.699-1.4,2.6-2.1c0.1,0.3,0.2,0.6,0.2,0.9c0.2,0.6,0.3,1.3,0.5,1.9c-2,3.6-7.8,2.2-8.5-1.6
		C397.7,163.8,402.2,161.9,404.4,160.7z"/>
	<path d="M87.8,161.7c0.5,0,0.9,0,1.4,0c2.7,3.6,5.3,7.2,8,10.8c-0.4,1.3-0.8,2.7-1.2,4c-4.7-0.3-3.3-1.8-3.5-5.4
		c-0.9-0.9-1.9-1.9-2.8-2.8c-1.3,1.9-1.6,4.2-1.4,7.1c-0.9,0.2-1.7,0.3-2.6,0.5c-0.2-0.3-0.5-0.6-0.7-0.9
		C84.5,170,85.7,165.4,87.8,161.7z"/>
	<path d="M417.4,161.7c4.399,0.9,10.699,9.4,8.5,14.6c-1.101,0-2.2,0-3.301,0c-0.199-0.2-0.3-0.5-0.5-0.7c0.5-3.9-0.399-5.7-3.1-7.1
		c-0.6,2.3-1.1,4.4-0.5,7.1c-0.9,0.2-1.9,0.5-2.8,0.7c-0.2-0.2-0.3-0.3-0.5-0.5C414.2,171.2,415.2,165.2,417.4,161.7z"/>
	<path d="M291.3,162.4c0.5,0.2,1.101,0.3,1.601,0.5c0.6,4.3-1,15.4-5.601,13.4c-0.5-0.2-0.899-0.3-1.399-0.5
		c-0.101-0.6-0.2-1.3-0.2-1.9c2.2-1.1,3.6-2.8,3.8-5.9c-4.1,1.6-7.3,3.7-8.9,7.8c-0.6-0.2-1.3-0.3-1.899-0.5
		C277.8,167,287.3,166.8,291.3,162.4z"/>
	<path d="M242.8,163.3c14-0.7,5,22.1-6.8,13.2c0-0.9,0-1.7,0-2.6c0.5-0.2,1.1-0.3,1.6-0.5c3.2,2,8.3,2.4,9.4-2.1
		c2.1-5.6-5.7-6-7.1-1.6c1,0.8,1.1,1.2,2.1,0.9c0.8-0.5,1.6-1.1,2.4-1.6c0.1,0,0.2,0,0.2,0c0.6,1.7,1.1,2.9-0.5,4
		c-3.3,2.9-7.3-1.1-7.3-4.5C238.3,165.3,240,165,242.8,163.3z"/>
	<path d="M256.2,163.8c3.8,1.3,10.399,10.3,7.8,15.3c-1.1-0.2-2.2-0.3-3.3-0.5c-0.8-4.5-0.7-4.9-3.101-7.8c-0.1,0-0.199,0-0.199,0
		c-0.9,2-1.301,4.2-0.9,7.1c-0.9,0.2-1.9,0.3-2.8,0.5C252.1,174.1,253.7,167,256.2,163.8z"/>
	<path d="M57.2,165.4c3.1,0.4,7,4.5,8,7.1c-0.5,0.4-0.9,0.8-1.4,1.2c-1.1-0.3-2.2-0.6-3.3-0.9c-0.6,0.9-1.3,1.7-1.9,2.6
		c0,0.2,0,0.3,0,0.5c1.7,0.9,3.5,1.7,5.2,2.6c0.1,0.3,0.2,0.6,0.2,0.9c-0.2,0.2-0.3,0.3-0.5,0.5c-1.3,0.3-2.5,0.6-3.8,0.9
		c-1.6-1.3-3.1-2.5-4.7-3.8c0.6-2.6,2.3-4.2,2.6-5.9C58.1,168.8,56,167.9,57.2,165.4z"/>
	<path d="M387.3,167.3c2.8,1.2,6.601,3.9,7.8,6.8c-0.699,0.5-1.399,0.9-2.1,1.4c-0.9-0.4-1.7-0.8-2.6-1.2
		c-0.601,1.1-1.301,2.2-1.9,3.3c1.9,0.9,3.8,1.7,5.6,2.6c0,0.2,0,0.5,0,0.7c-1.5,0.5-3,0.9-4.5,1.4c-1.5-1-3-2-4.5-3.1
		c0.2-3,1.7-4,2.101-5.9c0.5-2.3-1.5-3.1-1.2-5.4C386.5,167.8,386.9,167.6,387.3,167.3z"/>
	<path d="M224.5,168.5c3.9,0.3,7.4,4.3,8.9,7.1c0,0.1,0,0.2,0,0.2c-2.2,1-3.1,0.3-4.9,0c-0.5,1-1.1,2-1.6,3.1
		c1.8,0.9,3.6,1.9,5.4,2.8c-0.1,0.3-0.2,0.6-0.2,0.9c-4,2-6.3-0.1-8.9-2.4c0.4-2.8,2.1-4.3,2.4-6.1C225.7,172,224,170.9,224.5,168.5
		z"/>
	<path d="M433.1,168.5c1.301,0.4,2.5,0.8,3.801,1.2c0,0.2,0,0.5,0,0.7c-0.2,0.2-0.5,0.3-0.7,0.5c-3.101-0.4-5.601,2.3-5.4,6.1
		c0.2,0.2,0.5,0.5,0.7,0.7c1.9,0.8,2.9,0.1,4.2-0.9c-0.101-0.4-0.2-0.8-0.2-1.2c-0.7,0.1-1.4,0.2-2.1,0.2
		c-0.301-0.1-0.601-0.2-0.9-0.2c0.3-2.4,3.2-4,5.4-3.5c0.5,1.8,1.1,3.6,1.6,5.4c-2,4.1-6.8,5.2-10.6,2.4
		C427.1,174.1,429.4,170.8,433.1,168.5z"/>
	<path d="M104.3,169.4c0.9,0.3,1.9,0.6,2.8,0.9c-0.1,0.4-0.2,0.8-0.2,1.2c-3.3,0-4.2,1.6-5.6,3.3c-0.2,2.9,0.4,3.8,2.8,4
		c0.7-0.5,1.4-0.9,2.1-1.4c-0.7-1.4-1.6-0.9-3.3-0.9c0.1-0.5,0.2-1.1,0.2-1.6c1.6-0.6,3.3-1.3,4.9-1.9c0.1,0.2,0.2,0.3,0.2,0.5
		c1.4,1.5,1.7,4.2,0.9,6.6C100,187.2,93.9,174.9,104.3,169.4z"/>
	<path d="M272,171.8c2,0.1,2.1,0.5,3.3,1.2c0,0.3,0,0.6,0,0.9c-3.5,0.4-6.399,2.3-5.899,6.6c0.199,0.2,0.5,0.5,0.699,0.7
		c0.601,0.2,1.301,0.3,1.9,0.5c0.8-0.5,1.6-0.9,2.4-1.4c-0.101-0.4-0.2-0.8-0.2-1.2c-1.601,0.4-1.5,0.4-3.101,0.2c0-0.5,0-0.9,0-1.4
		c1.601-0.7,3.101-1.4,4.7-2.1c2.101,1.3,2.8,4.8,1.601,7.3C267.2,190.3,262.2,176.9,272,171.8z"/>
	<path d="M467,174.1c0.9,0.3,1.7,0.6,2.6,0.9c0.2,4.8-1.1,7-3.5,9.2c-1.399-0.4-2.8-0.8-4.199-1.2c-0.101-0.4-0.2-0.8-0.2-1.2
		c1.1-1,2.2-2,3.3-3.1c-0.1-0.1-0.2-0.2-0.2-0.2c-3,1.2-6,2.4-8.899,3.5c-0.101-0.1-0.2-0.2-0.2-0.2c0.1-0.7,0.2-1.4,0.2-2.1
		C458.5,177.7,464.4,176.6,467,174.1z"/>
	<path d="M46.2,175.3c4.3,0.2,8.6,4.1,8.7,8.5c-0.1,0.1-0.2,0.2-0.2,0.2c-1-0.1-2-0.2-3.1-0.2c-1.1-1.3-2.2-2.7-3.3-4
		c-0.2,0-0.3,0-0.5,0c-0.1,0.3-0.2,0.6-0.2,0.9c-0.7,2.6,1.3,4.3,1.9,6.6c-0.8,0.4-1.6,0.8-2.4,1.2C43.6,184.4,44,180.5,46.2,175.3z
		"/>
	<path d="M75.8,175.6c5.2,0.2,11.6,6.3,12,11.3c-0.2,0.2-0.5,0.3-0.7,0.5c-3.7,0-5.7-3.5-7.3-5.6c-0.4,2-0.8,4.1-1.2,6.1
		c1.7,1.2,3.8,2.1,4.2,4.7c-3.5,0-5.4-1.5-7.1-3.3c0.3-3.3,0.6-6.6,0.9-9.9C76.3,177.7,75.6,177.4,75.8,175.6z"/>
	<path d="M423,176.7c0.5,0.4,1.1,0.8,1.6,1.2c0.101,4.4-1.1,6.4-3.3,8.5c-0.5-0.2-1.1-0.5-1.6-0.7c0.7-2.8,1.399-5.6,2.1-8.5
		C422.2,177,422.6,176.9,423,176.7z"/>
	<path d="M137.7,177c0.6,0.2,1.3,0.3,1.9,0.5c0.4,4.8-1.1,7.1-3.5,9.6c-2.3,0-3.1-0.6-4.5-1.4c0-0.4,0-0.8,0-1.2
		c1.2-0.8,2.4-1.6,3.5-2.4c0.1-0.2,0.2-0.5,0.2-0.7c-3,1.1-6,2.2-8.9,3.3c-0.2-0.5-0.5-0.9-0.7-1.4c0.1-0.3,0.2-0.6,0.2-0.9
		C128.8,180.2,134.8,179.5,137.7,177z"/>
	<path d="M92.5,177.4c6.4,1.1-2.5,12.4-3.3,7.5c0.8-2.4,1.6-4.7,2.4-7.1C91.9,177.7,92.2,177.6,92.5,177.4z"/>
	<path d="M385.4,186.1c-4.5,0.2-4.101-2.4-7.301-3.8c-0.1,0.2-0.199,0.5-0.199,0.7c-0.601,2.5,1.399,4.4,2.399,6.1
		c-0.5,1.3-0.6,1.5-2.399,1.6c-0.101-0.2-0.2-0.3-0.2-0.5c-4.2-2.1-3.8-8.4-1.601-12.5C380.5,178,385.1,181.9,385.4,186.1z"/>
	<path d="M68.3,178.6c0.7,0.5,1.4,0.9,2.1,1.4c-0.3,2.4,0,4.1,0.7,5.9c-0.3,0.2-0.6,0.3-0.9,0.5c-0.9-0.4-1.7-0.8-2.6-1.2
		C66.7,182.5,67.1,180.7,68.3,178.6z"/>
	<path d="M222.8,187.3c-1.1-0.1-2.2-0.2-3.3-0.2c-1.2-1.3-2.4-2.7-3.5-4c-0.9,3.2,1.1,4.6,1.9,7.3c-0.7,0.5-1.4,0.9-2.1,1.4
		c-3.6-4.1-3.9-7.4-1.6-13.2C218.3,179,222.8,182.8,222.8,187.3z"/>
	<path d="M244,178.8c5.4,0,11.7,5.7,12,10.8c-0.2,0.2-0.5,0.3-0.7,0.5c-0.899,0-1.899,0-2.8,0c-1.5-1.8-3-3.6-4.5-5.4
		c-0.2,2.2-0.5,4.4-0.7,6.6c1.8,1,3.601,1.7,4,4.2c-0.1,0.1-0.2,0.2-0.2,0.2c-3.1-0.1-5.3-1.6-6.8-3.3
		C244.2,188.2,243.7,181.5,244,178.8z"/>
	<path d="M306.1,178.8c0.5,0.2,1.101,0.3,1.601,0.5c0.2,5.2-1.101,7.3-3.8,9.6c-2.2-0.1-2.801-0.6-4.2-1.4
		c0.399-2.3,1.7-2.6,3.3-3.5c0.1-0.2,0.2-0.5,0.2-0.7c-4,0.3-5.9,2.3-8.9,3.5c-0.2-0.2-0.5-0.5-0.7-0.7c0-0.4,0-0.8,0-1.2
		C296.4,180.9,301.9,181.5,306.1,178.8z"/>
	<path d="M448.2,178.8c0.7,0.2,1.399,0.3,2.1,0.5c1,1.7,1.7,3.7,1.9,6.4c-0.2,0.2-0.5,0.3-0.7,0.5c-0.4,0-0.8,0-1.2,0
		c-0.7-0.9-1.399-1.7-2.1-2.6c-0.2,0.1-0.3,0.2-0.5,0.2c-0.601,1.3-1.3,2.5-1.9,3.8c-0.399,0-0.8,0-1.2,0
		c-0.199-0.2-0.3-0.5-0.5-0.7C443.7,182.8,445.8,180.7,448.2,178.8z"/>
	<path d="M260.7,179.6c0.6,0.5,1.3,0.9,1.899,1.4c0.2,4.5-1.199,8-5.199,7.8c0.199-2.7,1-6.9,2.6-8.9
		C260.2,179.7,260.5,179.6,260.7,179.6z"/>
	<path d="M398.1,179.8c0.801,0.5,1.601,0.9,2.4,1.4c0.3,1.9,0.6,3.8,0.9,5.6c-0.101,0.1-0.2,0.2-0.2,0.2c-2,0-2.4-0.4-3.5-1.2
		C396.8,183.3,397.2,182.1,398.1,179.8z"/>
	<path d="M117.5,180.7c0.8,0.1,1.6,0.2,2.4,0.2c1.1,1.7,1.6,3.7,1.9,6.4c-0.9,0.1-1.9,0.2-2.8,0.2c-0.4-0.8-0.8-1.6-1.2-2.4
		c-0.2,0.1-0.3,0.2-0.5,0.2c-0.7,1.2-1.4,2.4-2.1,3.5c-0.4,0.1-0.8,0.2-1.2,0.2c-0.2-0.2-0.3-0.3-0.5-0.5
		C112.7,184.2,114.9,182.6,117.5,180.7z"/>
	<path d="M236,181.9c0.9,0.5,1.7,0.9,2.6,1.4c-0.5,2.3,0.1,4,0.7,5.6c-0.9,0.1-1.9,0.2-2.8,0.2C234.8,187.1,234.4,184.4,236,181.9z"
		/>
	<path d="M286.1,182.8c0.9,0.3,1.7,0.6,2.601,0.9c0.6,1.8,1.6,4.4,0.899,6.1c-0.699,0-1.399,0-2.1,0c-0.5-0.9-1.1-1.9-1.6-2.8
		c-0.101,0.1-0.2,0.2-0.2,0.2c-0.9,1.4-1.7,2.8-2.601,4.2c-0.199,0-0.5,0-0.699,0c-0.2-0.2-0.301-0.3-0.5-0.5
		C280.9,186.6,283.7,184.7,286.1,182.8z"/>
	<path d="M433.6,186.8c0.2,2.3,0.5,4.5,0.7,6.8c-0.1,0-0.2,0-0.2,0c-0.5-0.1-1.1-0.2-1.6-0.2c-2-1.4-3.2-6.4-2.4-9.6
		c3.101-1.7,7.601-0.7,9.2,2.1c-0.2,0.4-0.3,0.8-0.5,1.2C437,187,435.3,186.9,433.6,186.8z"/>
	<path d="M56.8,183.1c2.9,0.3,4.4,2.2,5.2,4.5c-0.5,0.5-1.1,0.9-1.6,1.4c-1.2-0.6-2.4-1.3-3.5-1.9c-0.6,1.2-1.3,2.4-1.9,3.5
		c-0.5-0.1-1.1-0.2-1.6-0.2c-0.2-0.2-0.5-0.5-0.7-0.7C52.7,186,54.4,184.5,56.8,183.1z"/>
	<path d="M101.2,183.8c3.3-0.2,5.9,0.4,7.1,2.4c0.2,0.5,0.3,1.1,0.5,1.6c-0.2,0.2-0.3,0.3-0.5,0.5c-1.6-0.2-3.3-0.5-4.9-0.7
		c0,2.4,0,4.7,0,7.1c-0.3,0.1-0.6,0.2-0.9,0.2c-0.2-0.1-0.5-0.2-0.7-0.2c-1.7-2.1-2.9-6.1-1.9-10.1
		C100.3,184.3,100.8,184,101.2,183.8z"/>
	<path d="M387,185c2.7,0,6.1,2.7,4.9,4.9c-0.4,0.2-0.801,0.5-1.2,0.7c-1.101-0.5-2.2-1.1-3.3-1.6c-0.801,1.3-1.601,2.5-2.4,3.8
		c-0.5-0.2-0.9-0.5-1.4-0.7C382.8,188.4,385.2,186.5,387,185z"/>
	<path d="M470.8,185.4c0.601,0.2,1.3,0.3,1.9,0.5c0.1,0.3,0.2,0.6,0.2,0.9c-1.801,2.9-4.9,6.1-7.101,8.9c-0.2-0.1-0.5-0.2-0.7-0.2
		c-0.1-0.1-0.199-0.2-0.199-0.2C464.8,189.5,467.4,187.7,470.8,185.4z"/>
	<path d="M269.6,186.1c3.9-0.3,6.9,0.5,7.301,3.8c-0.2,0.2-0.5,0.5-0.7,0.7c-1.601-0.2-3.101-0.5-4.7-0.7c-0.1,0.2-0.2,0.3-0.2,0.5
		c0.2,2,0.5,4.1,0.7,6.1c-0.4,0.2-0.8,0.5-1.2,0.7c-0.2-0.1-0.5-0.2-0.7-0.2c-1.899-2.3-3-6.2-1.899-10.1
		C268.7,186.6,269.2,186.4,269.6,186.1z"/>
	<path d="M224.5,186.6c3.6,0.1,4.1,1.8,5.9,3.5c-0.7,3.2-3.3,1.7-4.5,0c-0.2,0.2-0.3,0.3-0.5,0.5c-0.7,1.2-1.4,2.4-2.1,3.5
		c-0.5-0.1-1.1-0.2-1.6-0.2c-0.2-0.2-0.5-0.5-0.7-0.7C221.1,189.6,222.8,188.6,224.5,186.6z"/>
	<path d="M457.8,186.8c1.3,0.2,2.7,0.5,4,0.7c1.8,2.8,0.4,7.1-2.6,8c-1.3-0.5-1.601-0.6-2.101-1.9c0.5-1.1,1.101-2.2,1.601-3.3
		c-0.101-0.1-0.2-0.2-0.2-0.2c-1.3,0.6-2.5,1.3-3.8,1.9c-0.5-0.5-0.9-0.9-1.4-1.4c0.101-0.4,0.2-0.8,0.2-1.2
		C455,188.6,456.4,187.7,457.8,186.8z"/>
	<path d="M140.3,188.3c0.6,0.3,1.3,0.6,1.9,0.9c0.1,0.2,0.2,0.5,0.2,0.7c-0.2,0.5-0.3,0.9-0.5,1.4c-4,1.2-4.1,5.4-7.5,7.1
		c-0.2-0.2-0.3-0.5-0.5-0.7C134.1,192.4,136.7,190.2,140.3,188.3z"/>
	<path d="M445.1,188.5c5.601-0.1,10.101,5.4,7.5,11.1c-1-0.3-2-0.6-3.1-0.9c0.1-1.4,0.2-2.8,0.2-4.2c-1.5-1.1-3-2.2-4.5-3.3
		c-2.7,0.9-4.9,3-5.9,5.6c0.4,0.8,0.8,1.6,1.2,2.4c0.9-0.1,1.9-0.2,2.8-0.2c0.2-0.7,0.3-1.4,0.5-2.1c-1.1,0.4-1.1,0.7-1.899-0.2
		c-0.101-0.4-0.2-0.8-0.2-1.2c1.5-0.6,3-1.3,4.5-1.9c0.5,0.9,0.899,1.9,1.399,2.8c-0.399,1.6-0.8,3.1-1.199,4.7
		c-1.801,1.3-4.301,1.7-7.301,1.2C433.5,195.5,438.4,190.9,445.1,188.5z"/>
	<path d="M66.2,189c2.3-0.1,3.8,0.1,4.9,0.9c0.4,2.5-1.5,6.1-2.6,8.2c-1-0.2-2-0.3-3.1-0.5c0.5-1.7,0.9-3.5,1.4-5.2
		c-0.1-0.1-0.2-0.2-0.2-0.2c-1.3,0.2-2.5,0.3-3.8,0.5c-0.2-0.5-0.3-1.1-0.5-1.6c0.2-0.3,0.3-0.6,0.5-0.9
		C64,189.7,65.1,189.4,66.2,189z"/>
	<path d="M125.2,189c3.6-0.2,5.3,0.3,6.8,2.1c0,3.2-1,4.6-2.4,6.4c-0.6,0.1-1.3,0.2-1.9,0.2c-0.5-0.4-0.9-0.8-1.4-1.2
		c0.1-2.4,0.9-2.6,1.6-4.2c0-0.1,0-0.2,0-0.2c-1.6,0.5-3.1,0.9-4.7,1.4c-0.2-0.2-0.3-0.3-0.5-0.5c0-0.8,0-1.6,0-2.4
		C123.6,190.1,124.4,189.5,125.2,189z"/>
	<path d="M93,190.1c3.9,0.7,4.8,6.1,4.2,10.1c-0.1,0.1-0.2,0.2-0.2,0.2c-1,0-2,0-3.1,0c-0.4-1.8-0.8-3.6-1.2-5.4
		c-1.6,1.7-2.1,3.4-3.3,5.6c-0.4-0.2-0.8-0.3-1.2-0.5c-0.8-0.3-0.2,0.2-0.7-0.5c-0.8-1.3-0.7-2.8-0.5-4.2
		C89.1,193.7,91,191.9,93,190.1z"/>
	<path d="M112.7,190.1c4.9-0.2,14.1,6.7,8.2,11.3c-0.9-0.4-1.9-0.8-2.8-1.2c0.2-1.4,0.3-2.8,0.5-4.2c-1.6-1.4-3-2.9-5.2-3.1
		c-2.6,1.7-5.6,2.8-4.9,7.1c0.3,0.3,0.6,0.6,0.9,0.9c0.7-0.1,1.4-0.2,2.1-0.2c0.3-0.7,0.6-1.4,0.9-2.1c-1.8,0.3-2.2,0.4-2.4-1.6
		c0.1-0.1,0.2-0.2,0.2-0.2c1.4-0.8,2.9-1.7,4.5-0.9c1.7,2.1,0.6,5.2-0.5,7.3c-1.8,1.2-5.7,1.7-7.8,0.2
		C100,197.6,107.7,191.9,112.7,190.1z"/>
	<path d="M398.1,190.1c1.301,0.3,2.7,0.6,4,0.9c0.101,0.3,0.2,0.6,0.2,0.9c-0.8,2.6-1.6,5.2-2.399,7.8c-1-0.2-2-0.3-3.101-0.5
		c0.3-1.7,0.601-3.5,0.9-5.2c0-0.1,0-0.2,0-0.2c-2.3,0.6-3.7,1.7-4.7-0.7c0.3-0.6,0.6-1.3,0.9-1.9
		C395.4,190.9,396.7,190.5,398.1,190.1z"/>
	<path d="M308.2,190.4c0.7,0.2,1.399,0.3,2.1,0.5c0.101,0.5,0.2,0.9,0.2,1.4c-3,2.5-4.9,5.4-7.5,8.2c-0.3-0.2-0.6-0.5-0.9-0.7
		C302.2,194.6,304.8,192.2,308.2,190.4z"/>
	<path d="M424.4,190.4c0.699,0.2,1.399,0.5,2.1,0.7c1.2,2,2.2,6.2,1.9,8.9c-4.101,1.3-4.301-1.5-4.7-4.9c-0.101,0-0.2,0-0.2,0
		c-1.7,1.7-2.2,6-4.9,5.9c-0.3-0.7-0.6-1.4-0.899-2.1C418.1,194.9,421.8,192.2,424.4,190.4z"/>
	<path d="M294.6,191.1c7.4-0.5,6.301,5,3.5,8.5c-0.899,0-1.899,0-2.8,0c-0.2-0.6-0.5-1.3-0.7-1.9c0.601-1.1,1.301-2.2,1.9-3.3
		c-1.6,0.5-3.3,0.9-4.9,1.4c-0.199-0.2-0.3-0.5-0.5-0.7c0-0.5,0-0.9,0-1.4C292,192.2,293,191.9,294.6,191.1z"/>
	<path d="M43.6,191.3c2.7-0.2,4.8-0.1,5.6,1.6c-0.2,0.3-0.5,0.6-0.7,0.9c-1.6,0.2-3.3,0.5-4.9,0.7c-0.1,0.3-0.2,0.6-0.2,0.9
		c0.1,0.1,0.2,0.2,0.2,0.2c0.9,0.5,1.7,1.1,2.6,1.6c-0.1,0.6-0.2,1.3-0.2,1.9c-0.3,0.1-0.6,0.2-0.9,0.2c-3.3-0.3-5.8-2.7-4.9-6.4
		C41.2,192.6,42.4,191.9,43.6,191.3z"/>
	<path d="M281.4,191.8c6.6-0.1,10.399,5.2,8.699,11.5c-0.1,0-0.199,0-0.199,0c-1-0.3-2-0.6-3.101-0.9c0.101-1.4,0.2-2.8,0.2-4.2
		c-4.4-3.8-7.4-3.2-10.6,1.9c0.399,3.3,4.1,4.2,4.199,0.2c-0.6,0.2-1.3,0.3-1.899,0.5c-0.2-0.3-0.3-0.6-0.5-0.9
		c0.1-0.3,0.2-0.6,0.2-0.9c1.3-0.6,2.699-1.3,4-1.9c0.399,0.2,0.8,0.5,1.199,0.7c1,3.1,0.301,6.8-2.399,7.8c-2,0.1-3.9,0.2-5.9,0.2
		C269.7,197.9,273.8,194.6,281.4,191.8z"/>
	<path d="M234.8,192c2.3-0.1,3.5,0.2,4.7,0.9c0.4,2.6-1.4,6-2.4,8.2c-1,0-3.6,0.2-2.8-0.7c-0.6-1.4,0.5-3.2,0.9-4.9
		c-0.1-0.1-0.2-0.2-0.2-0.2c-1.3,0.2-2.5,0.5-3.8,0.7c-0.2-0.2-0.3-0.5-0.5-0.7c0-0.4,0-0.8,0-1.2c0.2-0.4,0.5-0.8,0.7-1.2
		C232.6,192.6,233.7,192.3,234.8,192z"/>
	<path d="M51.8,192.3c3-0.2,6.8-0.3,8.2,1.2c5.5,5.6-0.8,15.2-8,12.5c-0.2-0.4-0.3-0.8-0.5-1.2c0.1-0.1,0.2-0.2,0.2-0.2
		c5.6-1.6,7-2.8,5.6-8.9c-0.2-0.1-0.3-0.2-0.5-0.2c-3.3-0.5-5.1,1.3-4.9,4c0.1,0.1,0.2,0.2,0.2,0.2c0.2-0.1,0.3-0.2,0.5-0.2
		c0.6-1.2,0.7-1.6,2.4-1.9c0.1,0.1,0.2,0.2,0.2,0.2c0.5,2,0.4,3.3-0.7,4.7C47.6,202.6,48.6,195.5,51.8,192.3z"/>
	<path d="M261.4,192.5c3.6,1.2,5,5.9,4.199,10.3c-1.1,0.1-2.199,0.2-3.3,0.2c-0.399-1.8-0.8-3.6-1.2-5.4c-2.1,1.4-2.1,4.7-4.199,5.6
		c-0.7-0.7-0.5,0-0.9-0.9c-0.7-1.1-0.8-2.7-0.5-4.2C257.5,196.3,259.4,194.4,261.4,192.5z"/>
	<path d="M374.5,193.9c1.6,0.2,3.3,0.5,4.9,0.7c0.199,0.4,0.3,0.8,0.5,1.2c-1.9,0.5-3.801,1.1-5.601,1.6c0.101,0.3,0.2,0.6,0.2,0.9
		c0.9,0.5,1.9,1.1,2.8,1.6c0,0.2,0,0.3,0,0.5c-0.5,1-0.2,0.7-1.2,1.2c-3,0.8-4.899-1.9-5.899-4C371,195.1,372.3,194.8,374.5,193.9z"
		/>
	<path d="M387,194.1c10.6,0.6,5.3,19.4-4,13.6c0-0.2,0-0.5,0-0.7c0.1-0.1,0.2-0.2,0.2-0.2c2.899-0.8,5.1-1.1,5.899-4
		c-0.199-1.7-0.5-3.5-0.699-5.2c-0.2-0.1-0.301-0.2-0.5-0.2c-1.2,0.1-2.4,0.2-3.5,0.2c-0.5,1.3-1.101,2.5-1.601,3.8
		c0.3,0.2,0.601,0.3,0.9,0.5c0.5-1.3,0.7-1.8,2.399-2.1c0.101,0.1,0.2,0.2,0.2,0.2c0.601,1.4,0.8,2.6,0.2,4.2
		c-0.2,0.2-0.5,0.3-0.7,0.5c-2.8,0.1-4-0.7-5.2-2.1c-0.199-3.8,0.2-6.8,2.801-7.8C384.7,194.6,385.8,194.4,387,194.1z"/>
	<path d="M211.8,194.8c1.9,0.3,3.8,0.6,5.6,0.9c0.1,0.3,0.2,0.6,0.2,0.9c-0.2,0.2-0.5,0.3-0.7,0.5c-1.9,0.2-4,0.3-5.2,1.2
		c0.1,0.2,0.2,0.5,0.2,0.7c0.9,0.8,1.9,1.6,2.8,2.4c-0.1,0.3-0.2,0.6-0.2,0.9c-0.4,0.2-0.8,0.3-1.2,0.5
		C207.3,202.6,206.5,196.8,211.8,194.8z"/>
	<path d="M224.2,195.5c9,0.8,7.1,16-3.1,14.1c-0.4-0.3-0.8-0.6-1.2-0.9c0-0.2,0-0.5,0-0.7c3.8-1.1,9.4-4.2,4.9-9.4
		c-1.1,0.2-2.2,0.5-3.3,0.7c-0.5,1.2-0.9,2.4-1.4,3.5c0.2,0.1,0.5,0.2,0.7,0.2c0.6-0.7,1.3-1.4,1.9-2.1c0.2,0.1,0.5,0.2,0.7,0.2
		c0.2,0.9,0.5,1.9,0.7,2.8c-0.5,0.7-0.9,1.4-1.4,2.1c-2.4-0.1-3.5-0.9-4.9-1.9c-0.6-3.3,0.1-5.8,1.4-7.8
		C220.9,196.2,222.6,195.9,224.2,195.5z"/>
	<path d="M73.5,195.8c4.5,0.3,8.8-0.4,8.9,4.5c-0.4,0.2-0.8,0.3-1.2,0.5c-1.9,0.9-2.8-0.9-4.9-1.4c-0.2,0.3-0.3,0.6-0.5,0.9
		c0.3,1.5,0.2,2.8-0.5,3.8c-0.5,0-0.9,0-1.4,0c-1.3-1.7-1.8-4.8-1.4-7.5C72.8,196.3,73.2,196,73.5,195.8z"/>
	<path d="M404.4,196.5c4.3,0.6,9.1-1.1,9.399,4.2c-0.3,0.1-0.6,0.2-0.899,0.2c-2,1-3.2-1.1-5.4-1.2c-0.1,1.5-0.2,3-0.2,4.5
		c-0.6,0.2-1.3,0.3-1.899,0.5c-0.2-0.2-0.5-0.5-0.7-0.7c-0.8-1.7-1.2-4.7-0.9-6.8C404,197,404.2,196.7,404.4,196.5z"/>
	<path d="M466.1,197c3.801,0.5,5.601,7.3,4.5,11.1c-1.5,1.2-2.899,2-5.6,1.4c-0.2-0.2-0.3-0.5-0.5-0.7c0-0.2,0-0.3,0-0.5
		c0.7-0.8,1.4-1.6,2.1-2.4c-0.199-1.2-0.5-2.4-0.699-3.5c-0.101,0.1-0.2,0.2-0.2,0.2c-1.5,1.8-2.9,3.1-3.5,5.9
		c-0.5,0.1-1.101,0.2-1.601,0.2C459.1,203.4,463.5,200,466.1,197z"/>
	<path d="M35.8,198.4c1.8,0.2,2.4,0.6,2.6,2.6c-0.1,0.1-0.2,0.2-0.2,0.2c-1.9,0.7-3.8,1.4-5.6,2.1c1.1,1.4,2.6,1.2,4.7,1.6
		c-0.2,0.9-0.3,1.7-0.5,2.6c-4.1,1.1-7.8-1.2-9.6-3.8c0.2-0.6,0.5-1.3,0.7-1.9C30.5,200.7,33.2,199.5,35.8,198.4z"/>
	<path d="M241.9,198.8c3.4-0.1,6.1,0.1,8.2,1.2c0.3,1,0.6,2,0.9,3.1c0,0.1,0,0.2,0,0.2c-0.5,0.2-0.9,0.5-1.4,0.7
		c-1.6-0.6-3.1-1.3-4.7-1.9c-0.2,0.3-0.3,0.6-0.5,0.9c-0.1,1.3-0.2,2.5-0.2,3.8c-0.5,0.1-1.1,0.2-1.6,0.2c-0.2-0.2-0.3-0.3-0.5-0.5
		c-1.2-1.5-1.5-4.8-1.2-7.1C241.3,199.3,241.6,199.1,241.9,198.8z"/>
	<path d="M455.5,199.3c3.5,0.4,3.1,3.4,1.9,5.9c-3.2,1.8-6.801,1.9-8.5-1.4c0.199-0.6,0.3-1.3,0.5-1.9c1.3,0.3,2.5,0.6,3.8,0.9
		C454.7,202.1,454.8,200.9,455.5,199.3z"/>
	<path d="M134.6,200c0.7,0.1,1.4,0.2,2.1,0.2c1.7,2.3,3.2,7.7,1.9,10.8c-1.9,1.3-4,1.7-6.1,0.5c0.8-2.5,2.9-3.3,1.6-6.6
		c-0.1,0.1-0.2,0.2-0.2,0.2c-1.9,2-3.7,4.7-5.6,5.9c-0.1-0.2-0.2-0.3-0.2-0.5C127.4,205.2,132,203,134.6,200z"/>
	<path d="M124,201.2c0.6,0.2,1.3,0.3,1.9,0.5c0.3,0.5,0.6,1.1,0.9,1.6c-0.1,2.3-0.8,3.4-2.1,4.5c-1.9,0-3.8,0-5.6,0
		c-0.6-0.8-1.3-1.6-1.9-2.4c0.1-0.5,0.2-1.1,0.2-1.6c0.1-0.1,0.2-0.2,0.2-0.2c1.3,0.4,2.5,0.8,3.8,1.2
		C123,203.9,123.3,202.8,124,201.2z"/>
	<path d="M40.8,201.7c0.5,0.2,0.9,0.5,1.4,0.7c1.6,2,1.1,3.9,3.8,4.9c0.8-0.8,1.4-1.1,2.8-0.7c0.2,1.3,0.3,2.7,0.5,4
		c0.9-0.5,1.9-1.1,2.8-1.6c0.6,0.2,1.3,0.5,1.9,0.7c0.3,1.8-0.1,2.8-1.2,3.8c-3.5,2.8-7.8-0.8-7.3-4.2c-4.6,0.2-6-2-5.6-6.6
		C40.1,202.3,40.5,202,40.8,201.7z"/>
	<path d="M303,201.7c1,0.4,2,0.8,3.1,1.2c0.801,3.1,1.801,6.3,1.4,9.6c-1.3,1-1.9,1.7-4.2,1.9c-0.7-0.4-1.399-0.8-2.1-1.2
		c0.7-1,1.399-2,2.1-3.1c0-1.8-0.399-2.7-1.2-3.1c-1.6,1.9-2.8,3.3-3.8,5.9c-0.5,0-0.899,0-1.399,0c-0.101-0.3-0.2-0.6-0.2-0.9
		C295.6,207.4,301.2,204.4,303,201.7z"/>
	<path d="M367.3,201.7c0.8,0.2,1.601,0.5,2.4,0.7c0.1,0.5,0.2,0.9,0.2,1.4c-1.9,0.9-3.801,1.9-5.601,2.8
		c1.601,1.9,3.601,0.6,5.2,2.1c-0.2,0.6-0.3,1.3-0.5,1.9c-3.6,2.3-7.7-0.9-10.1-2.6c0.1-0.8,0.199-1.6,0.199-2.4
		C361.8,204.3,364.5,203,367.3,201.7z"/>
	<path d="M431.2,201.7c0.6,0.2,1.3,0.3,1.899,0.5c-0.1,1.5-0.199,3-0.199,4.5c0.1,0,0.199,0,0.199,0c2.5-0.6,3.4-1.8,5.9-0.9
		c0.1,0.7,0.2,1.4,0.2,2.1c-2.101,1.4-6.9,4.1-9.2,1.2C428.3,206.6,430.1,203.2,431.2,201.7z"/>
	<path d="M98.9,202.4c0.9,0.1,1.7,0.2,2.6,0.2c-0.2,1.6-0.3,3.3-0.5,4.9c2.1-0.7,3.2-1.6,5.6-0.9c0.2,0.7,0.3,1.4,0.5,2.1
		c0,0.1,0,0.2,0,0.2c-2.8,1.1-6.1,3.1-9.4,1.2C96.7,207.1,97.6,204.4,98.9,202.4z"/>
	<path d="M204.5,202.4c0.8,0.2,1.6,0.5,2.4,0.7c0.1,0.5,0.2,1.1,0.2,1.6c-2,0.9-3.9,1.7-5.9,2.6c0.1,0.2,0.2,0.3,0.2,0.5
		c1.5,0.3,3,0.6,4.5,0.9c0.1,0.1,0.2,0.2,0.2,0.2c-0.1,0.7-0.2,1.4-0.2,2.1c-3.6,1.8-8.7-0.4-10.3-3.3
		C196.7,204.4,201.9,204.3,204.5,202.4z"/>
	<path d="M292.5,203.5c0.4,0,0.8,0,1.2,0c0.5,0.5,1.1,1.1,1.6,1.6c0,5.9-7.8,7.3-9.6,2.4c0.1-0.5,0.2-1.1,0.2-1.6
		c1.6,0.3,3.1,0.6,4.699,0.9C291.2,205.7,291.8,204.6,292.5,203.5z"/>
	<path d="M83.8,204c4,0.7,1.9,7,0.9,9.9c-0.9,0.1-1.7,0.2-2.6,0.2c-0.8-1.7-1.1-3.7-0.5-5.9c-1.7,1-3.5,2-5.2,3.1
		c-0.2-0.2-0.3-0.3-0.5-0.5c-0.1-0.6-0.2-1.3-0.2-1.9C78.5,206.8,80.1,205.5,83.8,204z"/>
	<path d="M423,204.2c0.9,0.2,1.7,0.3,2.6,0.5c2,3.4,1.101,8-3.8,7.8C422.4,209.6,423.2,208,423,204.2z"/>
	<path d="M92.3,204.5c0.8,0.3,1.6,0.6,2.4,0.9c0.6,3,0.1,4.9-1.2,7.1c-1.1,0.1-2.2,0.2-3.3,0.2C90.6,210.7,91.2,206.7,92.3,204.5z"
		/>
	<path d="M267.8,204.5c0.7,0.2,1.4,0.5,2.101,0.7c0,1.6,0,3.3,0,4.9c2-0.9,3-1.8,5.399-1.2c0.2,0.2,0.3,0.5,0.5,0.7
		c-0.1,0.5-0.2,1.1-0.2,1.6c-2.6,1.4-6,3-9.199,1.2C265.2,209.3,266.1,206.7,267.8,204.5z"/>
	<path d="M377.8,211.8c-1.5-0.2-3-0.5-4.5-0.7c-1.1-1.7-2.1-3.9-1.2-6.4c0.101-0.1,0.2-0.2,0.2-0.2c1,0.4,5.3,5,5.4,5.6
		c1-0.9,1.399-1.4,3.1-1.2c0.2,1.3,0.5,2.5,0.7,3.8c0.2-0.2,0.5-0.3,0.7-0.5c1.2-0.5,2.399-0.9,3.5-1.4c0.2,0.2,0.5,0.5,0.7,0.7
		c-0.5,1.3-0.9,2.7-1.4,4C381.5,216.8,377.9,215.7,377.8,211.8z"/>
	<path d="M416.9,214.1c-1,0.1-2,0.2-3.101,0.2c-0.8-1.6-1.1-3.4-0.5-5.4c-1.6,1.1-3.3,2.2-4.899,3.3c-0.2-0.2-0.5-0.5-0.7-0.7
		c0.1-0.6,0.2-1.3,0.2-1.9c1.1-2.2,5.6-6,8.5-4.7c0.3,0.2,0.6,0.3,0.899,0.5C417.2,208.3,417,211.2,416.9,214.1z"/>
	<path d="M62.9,204.7c3.4,0.2,6.5,3.6,7.3,6.4c-0.2,0.2-0.3,0.3-0.5,0.5c-0.9,0.2-1.7,0.3-2.6,0.5c-0.7-0.6-1.4-1.3-2.1-1.9
		c-0.2,0.2-0.3,0.3-0.5,0.5c0.1,2.8-0.2,4.6-1.2,6.1c-0.3,0-0.6,0-0.9,0c-0.1-0.2-0.2-0.3-0.2-0.5C60.2,213.8,61.1,206.4,62.9,204.7
		z"/>
	<path d="M209,205.7c0.7,0.1,1.4,0.2,2.1,0.2c1.1,2.3,1.6,3.4,3.3,4.9c0.9-0.8,1.1-1.1,2.8-1.2c0.2,0.2,0.3,0.5,0.5,0.7
		c0.1,1.2,0.2,2.4,0.2,3.5c1-0.6,2-1.3,3.1-1.9c0.5,0.2,1.1,0.5,1.6,0.7c0.4,2.2-0.3,3.8-2.1,4.5c-3.8,1.5-7.3-1.3-6.6-4.5
		C209.4,213.1,206.5,209.5,209,205.7z"/>
	<path d="M395,206.1c0.6,0,1.3,0,1.9,0c1.6,1.8,3.3,3.6,4.899,5.4c-0.2,0.4-0.3,0.8-0.5,1.2c-1,0.1-2,0.2-3.1,0.2
		c-0.5-0.5-1.101-0.9-1.601-1.4c0,2.7,0.101,5.2-1.399,6.8c-0.2-0.1-0.3-0.2-0.5-0.2C392.8,215.7,392.6,208.1,395,206.1z"/>
	<path d="M252,206.6c0.9,0.5,1.7,1.1,2.6,1.6c-0.399,2.8-0.8,5.6-1.199,8.5c-0.9,0.1-1.7,0.2-2.601,0.2c-0.8-1.6-1.1-3.6-0.7-5.9
		c-1.7,1-3.5,2-5.2,3.1c-0.1-0.1-0.2-0.2-0.2-0.2c-0.2-0.7-0.5-1.4-0.7-2.1C246.6,209.5,248.4,208.2,252,206.6z"/>
	<path d="M260.7,207.1c0.8,0.3,1.6,0.6,2.399,0.9c0.601,3,0.101,4.9-1.199,7.1c-1.101,0.1-2.2,0.2-3.301,0.2
		C258.9,213.4,259.7,209.2,260.7,207.1z"/>
	<path d="M231.5,207.8c3.9,0.2,5.3,3.5,7.3,5.6c-0.1,0.4-0.2,0.8-0.2,1.2c-1,0.2-2,0.3-3.1,0.5c-0.6-0.6-1.3-1.3-1.9-1.9
		c-0.1,0.2-0.2,0.5-0.2,0.7c-0.5,2.1-0.4,4.4-1.2,5.9c-0.3,0-0.6,0-0.9,0c-0.1-0.2-0.2-0.3-0.2-0.5
		C229.2,217,229.8,209.5,231.5,207.8z"/>
	<path d="M443.5,208.7c3.3,0.7,6.1,3.3,7.1,6.4c-0.3,0.1-0.6,0.2-0.899,0.2c-0.9,0.2-1.9,0.3-2.8,0.5c-0.9-1-1.7-2-2.601-3.1
		c-0.3,2.4-1,3.8-3.1,4.5c-0.2,0-0.3,0-0.5,0c-0.2-0.2-0.5-0.5-0.7-0.7c-0.3-2.6,0.6-5.1,1.6-7.1C442.2,209.2,442.8,209,443.5,208.7
		z"/>
	<path d="M111.3,209.9c3.8,0,6.8,3.2,6.8,6.8c-0.2,0-0.5,0-0.7,0c-2.7,1.4-3.7-1.2-4.7-2.8c-1.1,2.1-1,3.9-4,4.2
		c-0.1-0.1-0.2-0.2-0.2-0.2c-0.2-0.2-0.3-0.3-0.5-0.5C108,213.9,109.3,211.4,111.3,209.9z"/>
	<path d="M456.6,212c1.2,0.3,2.4,0.6,3.5,0.9c1.9,3.4,0,5.7-2.399,7.5c-1-0.1-2-0.2-3.101-0.2c-0.199-0.2-0.3-0.5-0.5-0.7
		c0.7-1.5,1.4-3,2.101-4.5c-1.4,0.6-2.8,1.3-4.2,1.9c-0.3-0.2-0.6-0.3-0.9-0.5c-0.1-0.1-0.199-0.2-0.199-0.2
		C451.4,212.9,453.8,212.9,456.6,212z"/>
	<path d="M280.2,212.5c4.2,0,6.399,3,7.1,6.6c-0.2,0-0.5,0-0.7,0c-0.699,0.2-1.399,0.5-2.1,0.7c-0.9-1.1-1.7-2.2-2.6-3.3
		c-0.2,0-0.301,0-0.5,0c-0.5,2.3-1.101,4-3.801,4.2C275.9,218.1,278,214,280.2,212.5z"/>
	<path d="M71.3,214.1c11.1-0.8,11.2,15.1,5.4,10.3c0.2-1.4,0.3-2.8,0.5-4.2c-1.4-1.2-3.4-3.5-5.2-2.8c-2.5,0.7-4.5,2.6-5.4,4.9
		c0.3,0.9,0.6,1.7,0.9,2.6c0.5,0.1,1.1,0.2,1.6,0.2c1.2-0.8,1.4-0.8,1.6-2.6c-0.7,0-1.4,0-2.1,0c0.2-0.6,0.3-1.3,0.5-1.9
		c1.3-0.8,2.9-1.8,4.5-0.9c2.2,2.8,0,6.6-1.9,8.2c-2.1-0.2-4.2-0.3-6.4-0.5C60.4,220.9,65.1,216.4,71.3,214.1z"/>
	<path d="M123.3,214.1c3.1-0.1,4.1,0.6,5.4,2.1c0.3,4.3-2.7,7.4-6.6,5.9c-0.1-0.2-0.2-0.5-0.2-0.7c0.9-1.3,1.7-2.7,2.6-4
		c0-0.1,0-0.2,0-0.2c-1.4,0.5-2.8,1.1-4.2,1.6c-1.2-0.5-1.2-0.3-1.4-1.9C120,215.2,121.2,214.9,123.3,214.1z"/>
	<path d="M40.8,214.8c3,0.2,7.1,2.8,6.4,6.1c-1.2,0.7-2.2,1-3.3,0c-0.1,0.2-0.2,0.5-0.2,0.7c-0.3,1.3-0.6,2.7-0.9,4
		c2,1.5,4.1,3,6.1,4.5c-0.1,0.3-0.2,0.6-0.2,0.9C41.1,233.3,37.4,220.1,40.8,214.8z"/>
	<path d="M404.9,215.1c5.899-0.2,10.1,4.8,8,10.8c-0.101,0.1-0.2,0.2-0.2,0.2c-4-0.2-2.7-2.6-2.8-5.4c-4.7-4.2-12.7-1.4-9.2,4.9
		c0.3,0.1,0.6,0.2,0.899,0.2c0.7-0.2,1.4-0.5,2.101-0.7c0.2-0.6,0.3-1.3,0.5-1.9c-0.101,0-0.2,0-0.2,0c-0.5,0.2-1.1,0.3-1.6,0.5
		c0-0.7,0-1.4,0-2.1c1.199-1.1,2.5-1.7,4.5-1.4c1.3,2.1,0.899,5.1-0.2,7.3c-1.9,1.3-4.7,1.8-7.5,0.9
		C393.4,221.9,399.1,217.4,404.9,215.1z"/>
	<path d="M86.6,215.3c9.9-0.4,4.4,7.5,0.9,10.3c-2.4,0.1-3.1-0.5-3.5-2.4c1.2-1.5,2.4-3,3.5-4.5c-1.8-0.4-3.3,0.1-3.5-2.1
		C84.9,216.2,85.8,215.8,86.6,215.3z"/>
	<path d="M419.5,215.3c2.5,0.2,3.8,1.1,5.4,2.1c0.1,0.5,0.199,1.1,0.199,1.6c-1.399,2.3-3.6,6.4-6.8,6.8c-3.399-2.2,0.8-4.5,1.9-7.1
		c-0.2-0.1-0.3-0.2-0.5-0.2c-1-0.1-2-0.2-3.101-0.2c-0.199-0.5-0.3-0.9-0.5-1.4C417.3,216.4,418.4,215.9,419.5,215.3z"/>
	<path d="M292,216.2c2.4-0.2,3.8,0.1,4.7,1.4c0.3,0.9,0.6,1.9,0.899,2.8c-0.8,1.9-1.899,3.6-4,4.2c-1.199,0.4-2,0-2.8-0.5
		c0-0.3,0-0.6,0-0.9c0.9-1.2,1.7-2.4,2.601-3.5c0-0.1,0-0.2,0-0.2c-2.5,0.6-3.601,2.3-5.601,0.7c0.101-0.5,0.2-1.1,0.2-1.6
		C289.3,217.8,290.7,217,292,216.2z"/>
	<path d="M240.7,216.7c5.4,0,11.7,5.9,8.2,11.5c-0.2,0.1-0.3,0.2-0.5,0.2c-0.9-0.4-1.7-0.8-2.6-1.2c0.1-1.4,0.2-2.8,0.2-4.2
		c-2.7-2.3-3.5-3.4-7.1-2.1c-1.2,1.3-2.4,2.7-3.5,4c0.3,0.9,0.6,1.9,0.9,2.8c0.7,0,1.4,0,2.1,0c0.4-0.9,0.8-1.7,1.2-2.6
		c-0.6,0.2-1.3,0.3-1.9,0.5c-0.2-0.3-0.3-0.6-0.5-0.9c0.1-0.3,0.2-0.6,0.2-0.9c1.5-0.5,3-1.1,4.5-1.6c0.3,0.3,0.6,0.6,0.9,0.9
		c0.6,2.7,0,5.7-1.6,6.8c-1.5,1.2-4.9,1.1-7.1,0.5C228.9,223.4,233.8,219,240.7,216.7z"/>
	<path d="M445.6,217c1.5,0.2,3,0.5,4.5,0.7c2.301,3.2,2.7,9.1-1.6,10.6c-1.3,0-2.7,0-4,0c-0.2-0.2-0.3-0.3-0.5-0.5
		c0-0.2,0-0.5,0-0.7c2.7-0.8,4.1-0.8,5.4-3.3c-0.101-3-0.601-4.4-3.801-4c-0.199,0.2-0.3,0.3-0.5,0.5c-0.199,0.9-0.5,1.7-0.699,2.6
		c0.1,0,0.199,0,0.199,0c0.7-0.5,1.4-0.9,2.101-1.4c0.2,0.2,0.3,0.3,0.5,0.5c0,0.9,0,1.7,0,2.6c-0.2,0.3-0.3,0.6-0.5,0.9
		c-1.601,0.2-2.7-0.1-3.8-0.9c-1.601-1.8-0.4-5.6,0.5-7.1C444.2,217.3,444.9,217.1,445.6,217z"/>
	<path d="M373.1,217.7c3.301,0.4,4.9,2.1,6.801,3.8c-0.2,0.8-0.5,1.6-0.7,2.4c-1.4,0.3-2.2,0-3.3-0.5c-0.2,1.6-0.5,3.1-0.7,4.7
		c2.2,0.9,6.399,2.5,6.1,5.2c-3.1,1.2-8-2.4-9.2-4.9C372.6,225.7,372,219.5,373.1,217.7z"/>
	<path d="M438.1,217.9c0.5,0.1,1.101,0.2,1.601,0.2c-0.2,0.5-0.3,0.9-0.5,1.4c-1.4,1.2-2.8,2.4-4.2,3.5c1.5,0.4,1.7,0.2,2.1,1.9
		c-1.5,1.2-3.8,1.1-4.899-0.7C429.7,220.8,435.7,218.8,438.1,217.9z"/>
	<path d="M255.3,218.1c3.2-0.1,4.601,1,6.4,2.4c0,0.5,0,0.9,0,1.4c-1.2,2-3.5,5.4-5.9,6.4c-0.899-0.2-1.7-0.3-2.6-0.5
		c-0.101-0.5-0.2-1.1-0.2-1.6c0.1-0.1,0.2-0.2,0.2-0.2c1.1-1.4,2.2-2.8,3.3-4.2c-2-0.3-3.1,0-3.5-2.1c0.2-0.1,0.3-0.2,0.5-0.2
		C254,218.9,254.7,218.5,255.3,218.1z"/>
	<path d="M113.5,218.4c9-0.4,6.6,14.9-1.9,11.5c-0.2-0.2-0.3-0.3-0.5-0.5c0-0.2,0-0.5,0-0.7c3-0.9,4.1-1.1,5.4-3.8
		c-0.3-1.3-0.6-2.5-0.9-3.8c-0.9,0.1-1.9,0.2-2.8,0.2c-0.4,1-0.8,2-1.2,3.1c0.2-0.1,0.5-0.2,0.7-0.2c0.5-0.5,1.1-0.9,1.6-1.4
		c0.1,0.1,0.2,0.2,0.2,0.2c0.2,0.5,0.5,1.1,0.7,1.6c-0.4,0.8-0.8,1.6-1.2,2.4c-1.3-0.5-2.7-0.9-4-1.4c-0.9-3.4,0.4-5.6,2.1-7.1
		C112.4,218.5,112.9,218.4,113.5,218.4z"/>
	<path d="M105.2,218.8c0.6,0.1,1.3,0.2,1.9,0.2c0,0.3,0,0.6,0,0.9c-1.6,1.1-3.1,2.2-4.7,3.3c0,0.2,0,0.3,0,0.5
		c0.7,0.3,1.4,0.6,2.1,0.9c-0.2,0.6-0.3,1.3-0.5,1.9c-2.3,0-3.2-0.5-4.5-1.4c-0.2-0.9-0.3-1.7-0.5-2.6
		C100.4,220.6,103.1,220,105.2,218.8z"/>
	<path d="M209.4,218.8c3.3,0,6.1,1.9,7.1,4.2c0,0.4,0,0.8,0,1.2c-1.5,0.7-2.2,1.3-3.5,0c-0.3,1.6-0.6,3.3-0.9,4.9
		c2.1,1.2,5.9,2.4,5.6,5.2c-3.2,1.2-7.9-2.5-8.9-5.2C209.3,225.9,208.7,222.3,209.4,218.8z"/>
	<path d="M55.1,219.3c1.7,0.1,3.5,0.2,5.2,0.2c0.3,0.4,0.6,0.8,0.9,1.2c-0.2,0.4-0.3,0.8-0.5,1.2c-1.1,0.9-2.2,1-4,1.4
		c0,0.1,0,0.2,0,0.2c1.3,0.6,1.7,0.8,2.1,2.4c-0.1,0.1-0.2,0.2-0.2,0.2c-3.3-0.3-5.2-2.1-7.1-4c0.1-0.3,0.2-0.6,0.2-0.9
		C52.9,220.6,54,219.9,55.1,219.3z"/>
	<path d="M281.9,220.7c7.6-0.5,8.3,9.5,3.1,11.3c-1.7,0.8-4,0.7-4.7-0.9c0.101-0.1,0.2-0.2,0.2-0.2c3-0.4,4.4-1,5.2-3.8
		c-0.2-1.1-0.5-2.2-0.7-3.3c-0.1-0.1-0.2-0.2-0.2-0.2c-1,0.1-2,0.2-3.1,0.2c-0.3,0.9-0.601,1.9-0.9,2.8c0,0.1,0,0.2,0,0.2
		c0.2-0.1,0.3-0.2,0.5-0.2c0.5-0.5,0.9-0.9,1.4-1.4c0.2,0,0.3,0,0.5,0c0.2,1.1,0.3,2.2,0.5,3.3c-0.3,0.3-0.601,0.6-0.9,0.9
		c-2-0.2-3.1-0.8-4.2-1.9c-0.1-3.1,0.5-4.7,1.601-6.4C280.6,221,281.2,220.9,281.9,220.7z"/>
	<path d="M388.9,221.2c2.5-0.2,3.8,0,4.699,1.4c0,0.1,0,0.2,0,0.2c-1.1,1.6-2,1.6-4.199,2.1c0,0.1,0,0.2,0,0.2
		c0.8,0.5,1.6,0.9,2.399,1.4c-0.2,0.5-0.3,0.9-0.5,1.4c-3.5-0.2-6.399-1.6-7.5-4.2C385.3,222.4,386.6,222,388.9,221.2z"/>
	<path d="M273.4,221.4c0.899,0.1,1.899,0.2,2.8,0.2c-1.2,2.1-2.9,2.8-4.9,4c0.101,0.2,0.2,0.3,0.2,0.5c1.6,0.5,2,0.5,1.9,2.1
		c-0.2,0.2-0.5,0.3-0.7,0.5c-3.3,0.1-5-1.3-4.9-4.7C269.6,223.1,271.5,222.3,273.4,221.4z"/>
	<path d="M224,222.8c1.9,0.1,3.8,0.2,5.6,0.2c0.2,0.4,0.3,0.8,0.5,1.2c-1,1.9-2.2,1.8-4.2,2.1c0,0.1,0,0.2,0,0.2
		c0.7,0.5,1.4,0.9,2.1,1.4c-0.2,0.5-0.3,0.9-0.5,1.4c-3.3-0.1-6.5-1.8-7.3-4.5C221.5,224.2,222.8,223.5,224,222.8z"/>
	<path d="M455.9,222.8c3.5,0.8,4.3,4.6,5.6,7.5c-2.4,2.5-5.9,2.2-8.2,0.2c0.101-0.4,0.2-0.8,0.2-1.2c1.2-0.9,1.4-0.9,3.1-0.5
		c-0.6-1.6-1.3-3.1-1.899-4.7C455.2,223.8,455.5,223.3,455.9,222.8z"/>
	<path d="M123.1,225.2c3.4,0.6,4.7,4.7,5.4,7.8c-0.2,0.1-0.3,0.2-0.5,0.2c-1.5,1.3-4.4,1.4-6.6,0.7c-0.4-0.5-0.8-0.9-1.2-1.4
		c0.5-0.6,1.1-1.3,1.6-1.9c0.6,0.2,1.3,0.5,1.9,0.7c-0.1-0.2-0.2-0.3-0.2-0.5c-0.6-1.7-2-3.1-0.9-4.9
		C122.8,225.7,122.9,225.4,123.1,225.2z"/>
	<path d="M292,227.5c0.7,0.2,1.4,0.5,2.1,0.7c1.7,1.2,2.9,4.4,3.301,6.8c-0.2,0.1-0.301,0.2-0.5,0.2c-1.301,1.1-4,1.4-6.101,0.9
		c-0.5-0.5-1.1-1.1-1.6-1.6c0.3-0.5,0.6-0.9,0.899-1.4c0.9,0.2,1.7,0.3,2.601,0.5c-0.5-1.7-1.101-3.5-1.601-5.2
		C291.4,228.2,291.7,227.8,292,227.5z"/>
	<path d="M61,228.7c0.4,0,0.8,0,1.2,0c0.2,1.5,0.3,3,0.5,4.5c0.1,0,0.2,0,0.2,0c1.2-0.2,2.4-0.5,3.5-0.7c0.2,0.3,0.5,0.6,0.7,0.9
		c-0.2,0.4-0.3,0.8-0.5,1.2c-1.8,1.7-3.2,2.4-6.6,2.1C58.3,233.7,58.3,230.8,61,228.7z"/>
	<path d="M446.1,229.7c2,0.6,3.9,1.3,5.9,1.9c0.1,0.3,0.2,0.6,0.2,0.9c-0.5,1.5-1.101,2.3-2.601,2.8c-1.3-0.2-2.699-0.3-4-0.5
		c-0.8-1.3-1-2.6-0.699-4.5C445.3,230.1,445.7,229.9,446.1,229.7z"/>
	<path d="M418.1,229.9c3.7,0.5,7.4,0.9,11.101,1.4c-0.101,0.1-0.2,0.2-0.2,0.2c-4.2,2.9-8,7.9-4.9,13.4c0.301-0.1,0.601-0.2,0.9-0.2
		c1.2-1.8,1-2.9,1.4-5.4c2.399-0.1,3.1,0.4,4,1.9c0.199-0.2,0.3-0.3,0.5-0.5c-0.5-2-0.9-3.9-1.4-5.9c0.6-0.5,1.3-1.1,1.9-1.6
		c0.199,0,0.5,0,0.699,0c1.301,3.9,2.601,7,1.2,11.8c5.2,1.5,12.9,18.4,6.8,23.5c-5.8,0.6-0.399-19.5-11.5-21.9
		c-2.8,3.8-7.8,1.3-9.199-1.9c-5.601,7.2-7.7,33.2-9.4,44.5c-0.6,3.899,1.1,16.6-1.6,18.6c-0.801,0-1.601,0-2.4,0
		c-3.2-12.8,3.5-41.3,6.1-52c-3,3.601-4.3,8.5-8.5,10.8c-0.199-9,5.601-14.1,8.2-21.2c0.2-0.1,0.5-0.2,0.7-0.2
		c0.7,0.5,1.4,0.9,2.1,1.4c1.5-5.8,0.2-8.5-1.899-12.9c4,0.1,5.1,2,7.8,0.2c-0.2-0.2-0.3-0.5-0.5-0.7c-1.2-0.9-2.4-1.7-3.5-2.6
		C417,230.4,417.5,230.1,418.1,229.9z"/>
	<path d="M85.9,230.1c3.4,0.5,6.9,1.1,10.3,1.6c-3.3,4.6-9.2,6.4-5.9,13.9c0.1,0,0.2,0,0.2,0c0.2-0.1,0.5-0.2,0.7-0.2
		c1.3-1.7,1.2-2.9,1.4-5.4c0.1,0,0.2,0,0.2,0c2.4,0.1,2.9,0.8,3.8,2.4c0.1-0.2,0.2-0.5,0.2-0.7c-0.3-2-0.6-4.1-0.9-6.1
		c1.1-0.6,2.2-1.3,3.3-1.9c0.1,0.1,0.2,0.2,0.2,0.2c1.9,3.8,2.5,7.8,0.5,11.8c8.2,4.7,7.4,13.399,6.4,24.5
		c-7.2-0.2-2.2-10.9-4.2-16.2c-1.2-3-3.9-4.6-6.4-6.4c-4,2.7-7.4,1.5-9.6-2.1c-6.1,9.2-9.3,30.4-11.8,42.8
		c-0.6,3.101-1.3,18-2.8,19.101c-0.9-0.101-1.9-0.2-2.8-0.2c-2.1-16.101,5.7-38.5,9.4-51.5c-2.8,3.6-4.9,8.5-9.2,10.6
		c0.1-6.3,6.8-17.2,10.1-20.9c1.3,0.4,1.4,0.4,2.1,1.4c2.9-4.5,1.1-8.6-0.7-12.7c0-0.1,0-0.2,0-0.2c3.9,0.2,4.2,1.6,7.5,0.9
		c-0.1-0.3-0.2-0.6-0.2-0.9c-1.3-0.9-2.5-1.9-3.8-2.8C84.7,230.6,85.3,230.4,85.9,230.1z"/>
	<path d="M393.6,230.6c2.101,0.3,2.101,1.9,2.101,4c1.1-0.3,2.2-0.6,3.3-0.9c0.8,0.8,0.9,0.6,1.2,2.1c-0.2,0.1-0.3,0.2-0.5,0.2
		c-1.601,1.7-4,2.6-6.601,2.1c-0.899-1.7-1.699-3.3-1.199-5.9C392.5,231.7,393.1,231.1,393.6,230.6z"/>
	<path d="M112.7,231.3c2.5,0.7,2.8,0.6,4.9,0.9c0.3,0.4,0.6,0.8,0.9,1.2c0,0.4,0,0.8,0,1.2c-0.7,0.9-1.4,1.7-2.1,2.6
		c-2.5,0.1-3.7-0.5-4.9-1.6c0.1-1.2,0.2-2.4,0.2-3.5C112.1,231.8,112.4,231.5,112.7,231.3z"/>
	<path d="M230.4,231.8c0.3,0,0.6,0,0.9,0c0.2,1.5,0.5,3,0.7,4.5c0.9-0.3,1.9-0.6,2.8-0.9c0.5,0.5,0.9,1.1,1.4,1.6c0,0.2,0,0.3,0,0.5
		c-2.2,1.7-3.3,2.6-7.1,2.4c-1-1.7-1.6-3.2-1.2-5.9C228.8,233.2,229.6,232.5,230.4,231.8z"/>
	<path d="M254.6,232.9c3.601,0.5,7.2,1.1,10.801,1.6c-4.301,2.6-9,7.9-5.4,13.6c0.3,0,0.6,0,0.9,0c1.3-1.9,1.1-2.9,1.6-5.6
		c2.6,0.1,2.9,0.9,4,2.4c-0.3-2.4-0.6-4.7-0.9-7.1c1-0.8,1.5-1.3,2.801-1.2c1.8,3.5,2.699,7.5,0.699,11.5c7.2,2.6,9.5,15.2,6.101,24
		c-0.9-0.1-1.9-0.199-2.8-0.199c-3.301-9.4,1.399-18.301-8-22.101c-5,2.8-6.7,0.6-10.101-2.1c-5.9,12.899-8.5,30.7-11.1,46.1
		c-0.5,5.3-0.9,10.7-1.4,16c-1,0-2,0-3.1,0c-0.2-0.2-0.3-0.3-0.5-0.5c-0.2-19.3,4.5-36,8.5-51.5c-2.9,3.9-5.1,7.4-8.5,10.8
		c-1.4-4.399,7.1-18.399,9.4-20.899c1.3,0.4,1.4,0.4,2.1,1.4c3-4.6,1-8.7-0.7-12.9c3.9,0.2,4.2,1.6,7.5,0.9c-0.9-2-2.4-2.3-4-3.5
		C253.3,233.4,254,233.2,254.6,232.9z"/>
	<path d="M435.9,233.2c10.8,1.4,24.399,11.6,22.3,24.899c-4.5,2.9-7.3,7-13.4,9.2c-0.1,0-0.2,0-0.2,0c0-0.899,0-1.7,0-2.6
		c12.9-2.7,9.2-16.2,1.9-22.1c-2.3-1.9-6.8-2.8-8.9-4.9C437,236.2,436.5,234.7,435.9,233.2z"/>
	<path d="M281.9,233.7c2.399,0.5,2.6,0.6,4.699,0.7c0.4,0.9,0.801,1.7,1.2,2.6c-0.7,0.9-1.399,1.7-2.1,2.6c-1.5-0.3-3-0.6-4.5-0.9
		c-0.101-0.3-0.2-0.6-0.2-0.9C280.2,235.8,280.9,234.5,281.9,233.7z"/>
	<path d="M102.9,233.9c18.3,4.7,31.9,27.4,6.1,34.6c0.1-0.9,0.2-1.7,0.2-2.6C136,259.7,104.5,240.4,102.9,233.9z"/>
	<path d="M76.5,234.4c0.5,0.9,1.1,1.9,1.6,2.8c-7.1,3.4-14.4,5.1-20.7,8.9c-2.6,2.6-5.2,5.2-7.8,7.8c0-0.2,0-0.5,0-0.7
		C47.3,245,71.7,237.9,76.5,234.4z"/>
	<path d="M409.6,235.1c1.4,0.5,1.601,1.2,1.9,2.8c-7.1,3.4-13.9,5.3-19.8,9.6c-2.5,2.8-5,5.6-7.5,8.5c0-0.2,0-0.5,0-0.7
		C381.3,247.1,404.5,239.1,409.6,235.1z"/>
	<path d="M272,236.2c10.5,2,23.3,12.4,20.9,25.6c-4.7,2.8-7.7,6.4-13.9,8.9c0.1-0.9,0.2-1.7,0.2-2.601
		C305.4,258.6,274.6,244.6,272,236.2z"/>
	<path d="M245.6,237.2c0.5,1,1.1,2,1.6,3.1c-11.3,4.6-21.4,8-27.8,17.4c-0.1,0-0.2,0-0.2,0C217,247.9,240.1,241.2,245.6,237.2z"/>
	<path d="M380,240.5c1.8-0.1,2.8,0.1,3.8,0.7c0,0.6,0,1.3,0,1.9c-3.899,1.1-7.8,2.2-11.8,3.3c-13.4,5.8-33.2,14.6-52.7,9.9
		c-5.899-1.399-10.6-4.2-15.5-6.4c-4.2-1.7-8.3-3.5-12.5-5.2c0.2-0.5,0.3-1.1,0.5-1.6c2.601-1.8,26.9,9.8,34.3,10.8
		C343.6,256.3,367.2,245.1,380,240.5z"/>
	<path d="M215.8,241.4c0.9,0.2,1.7,0.3,2.6,0.5c0.1,0.6,0.2,1.3,0.2,1.9c-0.2,0.1-0.3,0.2-0.5,0.2c-13.5,11.3-72.9,16.5-91.3,5.2
		c-0.1-0.4-0.2-0.8-0.2-1.2c0.2-0.4,0.5-0.8,0.7-1.2c9,1.6,18,3.1,27.1,4.7C174.5,254.3,204.2,249.3,215.8,241.4z"/>
	<path d="M75.3,244c0.4,0.8,0,1.5-0.5,2.6c-2.6,3.2-5.2,6.4-7.8,9.6c-0.4,4.1-0.8,8.2-1.2,12.2c-0.3,0.1-0.6,0.199-0.9,0.199
		c-7.3,3.301-14.4-6-13.6-11.3c0.7-0.8,1.4-1.6,2.1-2.399c1.9,3.899,3,9.6,7.5,10.8c0.1-0.101,0.2-0.2,0.2-0.2
		C64.5,252.2,64,249.5,75.3,244z"/>
	<path d="M409.1,244.7c1.801,4-6,8.6-7.3,11.8c-0.3,4.5-0.6,8.9-0.899,13.4c-8.7,2.5-13.801-3.5-15.301-10.101
		c0.7-0.899,1.4-1.899,2.101-2.8c0.2,0,0.3,0,0.5,0c0.5,2,5.5,11.8,8,10.3c0.5-3.899,0.899-7.8,1.399-11.8
		C399.6,250.7,404.7,247.2,409.1,244.7z"/>
	<path d="M244.5,246.8c0,0.8,0,1.6,0,2.4c-2.4,2.5-4.9,5-7.3,7.5c-2.2,3.2-1.6,9.3-1.6,14.6c-0.2,0.101-0.3,0.2-0.5,0.2
		c-8.2,1.3-14.6-3.9-14.3-11.1c0.6-0.7,1.3-1.4,1.9-2.101c0.1-0.1,0.2-0.2,0.2-0.2c2.3,3.7,3.1,9.801,8,10.801
		C234.3,255.5,233.1,252.6,244.5,246.8z"/>
	<path d="M86.4,250.4c1.1,0.5,2.2,0.9,3.3,1.4c-1,16.4-2.5,31,0.9,44.9c-1,0.899-2,1.899-3.1,2.8c-4.8,1.7-7.6,0.6-12,2.6
		c0.1-1.399,0.2-2.8,0.2-4.199c3.4-0.7,6.7-1.4,10.1-2.101C82.7,282.6,83.7,263.7,86.4,250.4z"/>
	<path d="M430.1,250.4c6.9,6.8,4.101,21.3,6.101,32.5c-0.2,0.199-0.5,0.5-0.7,0.699c-2.7,0.301-5.5,0.601-8.2,0.9
		c-0.1,0-0.2,0-0.2,0c-0.1-1.2-0.199-2.4-0.199-3.5c0.199,0,0.5,0,0.699,0c1.301-0.2,2.5-0.5,3.801-0.7
		c0.199-12.2-1.601-20.5-4.7-28.5C427.7,251.3,428.9,250.8,430.1,250.4z"/>
	<path d="M420.7,250.6c1.1,0.4,2.2,0.801,3.3,1.2c-0.2,10.2-0.3,20.4-0.5,30.601c1.4,4.899,2.8,9.699,4.2,14.6
		c-3.8,2.2-10.601,3.9-14.8,5.9c0-1.301,0-2.7,0-4C416.3,298,419.6,297,423,296.1C418.8,285.5,418.2,264.4,420.7,250.6z"/>
	<path d="M95.8,250.8c5.7,5.8,5.2,24.101,3.8,33.4c-2.5,1.1-5.8,0.2-8.9,0.5c0.1-1.2,0.2-2.4,0.2-3.5c1.8,0,3.5-0.101,4.2-1.2
		c3.3-10-2.5-21.4-2.6-28.2C93.6,251.5,94.7,251.1,95.8,250.8z"/>
	<path d="M212.5,252.2c0.9,0.1,1.7,0.2,2.6,0.2c0.1,1,0.2,2,0.2,3.1c-3.4,0.8-6.9,1.6-10.3,2.4c-9.7,3.6-17.8,8.1-30.1,9.899
		c-6,0.8-18.3,0-15.3-5.2c4.5,0.301,8.2,2.4,13.9,1.601C188.9,262.1,199,257,212.5,252.2z"/>
	<path d="M255.8,252.9c1.101,0.5,2.2,0.899,3.3,1.399c-0.5,11.2-0.899,22.4-1.399,33.601c0.899,3.8,1.7,7.5,2.6,11.3
		c-1.3,0.7-1.5,2-2.6,2.6c-2,0.101-3.9,0.2-5.9,0.2c-2.7,0.4-4.3,1.6-6.4,2.6c0.2-1.399,0.3-2.8,0.5-4.199
		c3.3-0.7,6.6-1.4,9.9-2.101C253.7,284.3,254.5,267.7,255.8,252.9z"/>
	<path d="M265.2,282.8c0.3-10.899,0.3-20.899-3.5-28.5c1.3-0.399,2.7-0.8,4-1.2c2.5,6.2,7.2,24.7,3.8,32.7c-1.9,1.5-5.9,0.4-8.7,0.9
		c0-1.2,0-2.4,0-3.5C262.2,283.1,263.7,283,265.2,282.8z"/>
	<path d="M376.9,257.2c1.199,0.2,2.399,0.5,3.5,0.7c0.1,0.1,0.199,0.199,0.199,0.199c-0.199,0.7-0.5,1.4-0.699,2.101
		c-15.2,3.7-26.9,20.5-46.301,17.6c-14.699-2.2-22.899-10.2-36-15.1c-0.1-0.8-0.199-1.601-0.199-2.4c0.199-0.2,0.3-0.3,0.5-0.5
		c8.8-2.1,24.5,12.8,37.6,14.3C350,276,365.6,261.7,376.9,257.2z"/>
	<path d="M129.9,258.8c3.1,1.5,6.3,3,9.4,4.5c10,4.4,29.5,13.101,44.7,10.101c11.7-2.301,19-9.101,28.5-12.9
		c0.5,0.2,0.9,0.3,1.4,0.5c0.2,0.2,0.5,0.5,0.7,0.7c-0.1,0.5-0.2,1.1-0.2,1.6c-19.6,14-40.3,17.4-66.6,7.3
		c-4.5-1.699-20.5-6.8-18.6-11.5C129.4,259,129.7,258.9,129.9,258.8z"/>
	<path d="M122.4,267.8c4.3,2,8.6,4.101,12.9,6.101c12,5.3,36.7,16.399,55,12c11.6-2.801,20.3-11.4,30.3-14.801
		c0.4,0.2,0.8,0.5,1.2,0.7c0.1,0.7,0.2,1.4,0.2,2.101c-26.3,20.5-51.2,18.899-83.3,5.399c-5.6-2.399-14.8-4.7-18.1-9.399
		c0.2-0.5,0.3-0.9,0.5-1.4C121.6,268.2,122,268,122.4,267.8z"/>
	<path d="M449.4,270.3c1,0.2,2,0.5,3.1,0.7c3.6,9.3-0.2,22.8,1.2,34.1c1.3,10.2,3.8,25.601,1.399,36.5c-1.1,0.101-2.199,0.2-3.3,0.2
		c-0.2-0.2-0.3-0.3-0.5-0.5c-0.2-6.3-0.5-12.5-0.7-18.8c-1.5-12.4-1.199-25.3-1.199-38.6C449.3,279.4,447.9,273.3,449.4,270.3z"/>
	<path d="M384.4,271.3c0.699,0.101,1.399,0.2,2.1,0.2c0.2,0.2,0.3,0.5,0.5,0.7c-0.4,3.899-13.2,10.1-16.7,12.2
		c-11.399,7.1-30.8,23.5-49.399,12.699c-3.801-3.3-7.7-6.6-11.5-9.899c-3.301-2.4-19.601-10.5-18.601-13.9c0.5-0.2,0.9-0.3,1.4-0.5
		c7.8,2.8,15.7,8.5,21.899,13.4c3.7,3,6.101,6.8,11.101,8.7c18.1,7,33.7-7.7,44.2-14.301C374.4,277.6,379.4,274.4,384.4,271.3z"/>
	<path d="M114.2,271.8c1,0.4,2,0.8,3.1,1.2c2.5,8.4,0.3,21-0.7,29.2c-0.2,13.6-0.5,27.3-0.7,40.899c-0.9,0.301-1.9,0.601-2.8,0.9
		c-0.5-0.4-0.9-0.8-1.4-1.2c0.2-18.7-0.2-40.2,1.9-57.6c0.1-4.2,0.2-8.5,0.2-12.7C113.8,272.2,114,272,114.2,271.8z"/>
	<path d="M283.8,273.6c1.101,0.5,2.2,0.9,3.3,1.4c2.301,12.2-1.8,24.7-0.199,37.6c0.8,7,2.1,26.601-0.2,32.7c-1.101,0-2.2,0-3.3,0
		c-2.101-2.899-0.5-12.8-0.5-17.399c0.199-17.9,0.3-35.801,0.5-53.601C283.4,274.1,283.6,273.9,283.8,273.6z"/>
	<path d="M53.9,276.7c1.1,0.399,2.2,0.8,3.3,1.2c1.5,8.8,0,67-2.8,71.3c-0.9,0-1.9,0-2.8,0c-3.5-8.601,1.9-39,1.9-50.8
		C53.5,292,51.6,281.4,53.9,276.7z"/>
	<path d="M390.1,278.8c1.801,0,2.101,0.101,2.801,1.2c1.8,3.3,3.5,65.1,1.399,70.6c-0.899,0.2-1.899,0.301-2.8,0.5
		c-0.2-0.199-0.3-0.5-0.5-0.699c-0.2-17.4-0.3-34.801-0.5-52.2C390.5,292.3,387.7,282.8,390.1,278.8z"/>
	<path d="M224.5,280c0.6,0.2,1.3,0.3,1.9,0.5c4.1,6,1,42.9,0.5,52.5c-0.3,5.5,1.3,15.6-1.2,19.5c-0.9,0-1.9,0-2.8,0
		c-0.2-0.2-0.3-0.3-0.5-0.5c-2.2-16.9,1.3-34.3,1.6-51C224.1,294.6,221.6,283.5,224.5,280z"/>
</g>
</svg>
