<?xml version="1.0" encoding="utf-8"?>
<!-- Generator: Adobe Illustrator 16.0.0, SVG Export Plug-In . SVG Version: 6.00 Build 0)  -->
<!DOCTYPE svg PUBLIC "-//W3C//DTD SVG 1.1//EN" "http://www.w3.org/Graphics/SVG/1.1/DTD/svg11.dtd">
<svg version="1.1" id="Layer_1" xmlns="http://www.w3.org/2000/svg" xmlns:xlink="http://www.w3.org/1999/xlink" x="0px" y="0px"
	 width="612px" height="792px" viewBox="0 0 612 792" enable-background="new 0 0 612 792" xml:space="preserve">
<g>
	<path d="M286.951,412.932l-0.042-1.886c0.004-0.632-0.078-1.248,0.035-1.901c0.174-1.282,0.214-2.629,0.598-3.857l0.472-1.886
		c0.187-0.62,0.446-1.212,0.666-1.821c0.242-0.601,0.434-1.229,0.721-1.805l0.88-1.729c2.432-4.58,5.774-8.585,9.419-12.184
		c3.665-3.595,7.683-6.782,11.824-9.755c4.149-2.967,8.442-5.717,12.847-8.246c8.797-5.096,17.888-9.601,27.072-13.823
		c9.184-4.206,18.519-8.093,27.606-12.171c2.252-1.039,4.501-2.057,6.636-3.176c2.218-1.158,4.519-2.268,6.668-3.464
		c2.142-1.208,4.295-2.368,6.424-3.612l6.352-3.843c8.385-5.265,16.404-11.09,24.108-17.294
		c7.687-6.225,14.994-12.917,21.863-20.026c6.844-7.13,13.366-14.572,19.332-22.447c2.986-3.907,5.852-8.016,8.576-12.015
		l2.063-3.155l1.031-1.579l0.943-1.567c1.243-2.104,2.556-4.136,3.726-6.325c4.825-8.61,9.22-17.502,12.954-26.679l1.404-3.442
		l1.315-3.476l1.274-3.412c0.38-1.186,0.815-2.408,1.15-3.563c0.313-1.152,0.659-2.266,0.949-3.452
		c0.28-1.193,0.595-2.372,0.851-3.579c0.527-2.404,1.006-4.836,1.447-7.287c1.784-9.8,3.008-19.909,5.955-29.829
		c0.762-2.471,1.607-4.929,2.662-7.324l0.814-1.788l0.204-0.446l0.119-0.251l0.109-0.209l0.439-0.841
		c0.675-1.229,1.381-2.36,2.3-3.487c0.478-0.555,0.977-1.105,1.612-1.604c0.619-0.497,1.359-0.969,2.277-1.237
		c0.903-0.278,1.966-0.3,2.877-0.034c0.92,0.256,1.672,0.72,2.296,1.217c1.247,1.011,2.063,2.172,2.804,3.328
		c0.721,1.163,1.316,2.352,1.853,3.55c2.103,4.801,3.425,9.736,4.552,14.701c1.097,4.974,2.023,9.953,2.483,15.082
		c0.057,0.643,0.097,1.292,0.12,1.955c0.013,0.331,0.017,0.666,0.013,1.012l-0.013,0.942l-0.054,3.77
		c0.003,2.503-0.164,5.059-0.264,7.59c-0.031,0.634-0.047,1.269-0.092,1.903l-0.175,1.9l-0.335,3.801
		c-0.257,2.533-0.753,5.046-1.119,7.57c-0.112,0.7-0.261,1.245-0.404,1.887c-0.171,0.63-0.33,1.294-0.514,1.897
		c-0.353,1.232-0.731,2.444-1.113,3.646c-0.764,2.406-1.545,4.782-2.237,7.165c-0.694,2.377-1.313,4.771-1.628,7.135
		c-0.184,1.185-0.214,2.341-0.175,3.449l0.107,0.788l0.08,0.642c-0.013,0.202,0.083,0.133-0.06,0.878
		c-0.316,1.08-0.916,1.384-1.147,1.604c-0.278,0.197-0.329,0.331-0.206,0.115l-2.915-1.186c0.774-2.355,1.787-4.588,3.001-6.723
		c1.219-2.129,2.638-4.164,4.357-6c1.729-1.814,3.759-3.479,6.238-4.545c1.225-0.559,2.588-0.853,3.966-1.009l1.905-0.015
		c0.261-0.022,0.671,0.059,1.021,0.103l1.086,0.168c2.773,0.555,5.261,2.164,7.01,4.218c1.761,2.053,2.922,4.396,3.8,6.74
		c0.874,2.355,1.47,4.744,1.944,7.124c0.237,1.19,0.44,2.38,0.622,3.563l0.08,0.535l0.049,0.437l0.097,0.875l0.192,1.75l0.091,0.88
		l0.031,0.944l0.058,1.891c0.077,1.277-0.046,2.484-0.091,3.721c-0.024,1.236-0.205,2.454-0.356,3.677
		c-0.121,1.23-0.356,2.436-0.603,3.641c-0.122,0.604-0.226,1.212-0.366,1.81l-0.47,1.779l-0.477,1.78l-0.576,1.743l-0.578,1.742
		l-0.666,1.704c-0.437,1.14-0.892,2.272-1.412,3.37c-0.495,1.11-0.992,2.221-1.556,3.291c-0.549,1.079-1.08,2.172-1.679,3.216
		c-1.151,2.125-2.386,4.189-3.65,6.227c-2.541,4.068-5.26,7.98-8.013,11.822l-4.024-5.053c1.962-0.912,3.956-2.126,6.143-3.34
		c2.206-1.186,4.56-2.516,7.668-3.172c0.804-0.122,1.58-0.285,2.457-0.254c0.43,0.007,0.852-0.025,1.285,0.034l1.307,0.209
		c0.866,0.148,1.682,0.511,2.498,0.814c0.721,0.41,1.523,0.796,2.15,1.286c0.601,0.496,1.302,0.976,1.798,1.521l0.772,0.812
		l0.383,0.41l0.192,0.205l0.302,0.4l1.068,1.468c0.427,0.745,0.838,1.511,1.222,2.286c1.277,2.899,1.642,6.039,1.407,8.925
		c-0.228,2.899-0.954,5.584-1.869,8.093c-0.923,2.51-2.05,4.859-3.255,7.104c-0.601,1.124-1.227,2.22-1.854,3.291l-0.473,0.803
		l-0.569,0.89l-0.984,1.523l-1.971,3.046c-0.619,1.012-1.479,2.044-2.209,3.064c-1.532,2.035-3.038,4.129-4.676,5.973
		c-1.631,1.881-3.166,3.858-4.914,5.625l-2.558,2.714c-0.849,0.908-1.698,1.816-2.613,2.658c-1.81,1.706-3.563,3.47-5.42,5.126
		c-1.89,1.621-3.761,3.264-5.673,4.865l-5.944,4.575l-6.258,4.229l-2.596-8.326c1.974-0.121,3.984-0.332,6.168-0.523
		c2.185-0.161,4.562-0.408,7.517,0.102c0.707,0.087,1.516,0.375,2.269,0.61c0.76,0.296,1.55,0.678,2.266,1.118
		c0.682,0.494,1.439,0.973,1.973,1.573l0.849,0.883c0.281,0.299,0.464,0.606,0.697,0.913l0.646,0.931
		c0.199,0.309,0.341,0.61,0.51,0.917c0.32,0.611,0.673,1.24,0.88,1.828c0.235,0.594,0.49,1.201,0.694,1.79l0.531,1.742l0.13,0.436
		l0.033,0.109l0.016,0.055l0.061,0.249l0.041,0.193l0.17,0.771c0.056,0.275,0.114,0.473,0.169,0.811l0.15,1.066l0.131,1.065
		l0.047,0.973c0.041,0.65,0.051,1.298,0.014,1.94c-0.082,2.58-0.556,5.085-1.274,7.435c-1.454,4.712-3.803,8.82-6.4,12.54
		l-0.495,0.69l-0.248,0.344l-0.124,0.173l-0.238,0.314l-0.986,1.232l-1.971,2.465c-0.341,0.411-0.63,0.815-1.014,1.236l-1.163,1.258
		l-2.344,2.501c-0.773,0.865-1.586,1.588-2.388,2.346l-2.413,2.261c-1.616,1.497-3.335,2.843-5,4.267
		c-1.69,1.384-3.445,2.658-5.167,3.99c-1.746,1.29-3.528,2.502-5.291,3.757l-5.373,3.563l-5.425,3.415l-3.374-9.084l2.298-0.237
		c0.776-0.022,1.568,0.009,2.35,0.028c0.788,0.067,1.582,0.201,2.37,0.321c0.785,0.188,1.573,0.405,2.348,0.646
		c0.763,0.32,1.538,0.604,2.271,1.001c0.719,0.441,1.472,0.802,2.125,1.362c0.671,0.526,1.34,1.051,1.912,1.71
		c0.292,0.315,0.591,0.627,0.868,0.958l0.753,1.068c0.996,1.432,1.655,3.086,2.106,4.765c0.168,0.844,0.311,1.706,0.386,2.556
		c0.002,0.841,0.054,1.707-0.043,2.526c-0.122,0.808-0.188,1.657-0.408,2.422c-0.224,0.759-0.411,1.558-0.705,2.273l-0.459,1.06
		l-0.234,0.528l-0.119,0.262l-0.061,0.133l-0.014,0.032l-0.189,0.339l-0.026,0.048c-0.322,0.513-0.581,0.962-0.955,1.528
		c-0.543,0.723-1.131,1.472-1.716,2.118c-0.551,0.53-1.106,1.065-1.674,1.574l-1.761,1.341l-1.811,1.137
		c-1.218,0.683-2.451,1.305-3.689,1.813c-0.619,0.286-1.241,0.495-1.862,0.726c-0.622,0.239-1.245,0.445-1.868,0.63
		c-1.247,0.402-2.494,0.714-3.744,1.01c-1.249,0.288-2.502,0.522-3.756,0.732c-2.51,0.396-5.021,0.648-7.604,0.726l1.078-9.2
		c1.329,0.386,2.656,0.782,4.027,1.329c1.373,0.551,2.775,1.18,4.266,2.18c0.733,0.482,1.52,1.136,2.272,1.948
		c0.759,0.851,1.519,1.996,1.935,3.431c0.434,1.43,0.381,3.074,0.014,4.319c-0.357,1.268-0.909,2.258-1.469,3.082
		c-1.138,1.599-2.338,2.675-3.516,3.636c-1.184,0.945-2.364,1.734-3.55,2.459c-2.369,1.438-4.746,2.636-7.141,3.724
		c-4.789,2.167-9.631,3.932-14.55,5.483c-2.462,0.769-4.938,1.482-7.472,2.112c-1.267,0.314-2.545,0.61-3.866,0.871
		c-1.35,0.253-2.624,0.503-4.339,0.604l-0.095-8.23c1.422,0.083,2.84,0.168,4.364,0.486c1.517,0.321,3.116,0.747,4.852,1.785
		c0.42,0.223,0.882,0.613,1.3,0.937c0.436,0.425,0.86,0.801,1.238,1.36c0.775,1.017,1.327,2.437,1.398,3.77
		c0.093,1.328-0.157,2.568-0.547,3.544c-0.388,0.984-0.878,1.835-1.413,2.543c-1.072,1.446-2.28,2.533-3.544,3.446
		c-1.268,0.913-2.6,1.649-3.979,2.252s-2.812,1.059-4.28,1.373c-0.363,0.091-0.739,0.141-1.107,0.207l-0.279,0.048l-0.139,0.022
		l-0.256,0.032l-0.468,0.046l-1.867,0.189c-0.638,0.053-1.21,0.146-1.901,0.167l-2.041,0.076l-2.037,0.07l-1.962-0.044
		c-1.308-0.028-2.616-0.043-3.909-0.161c-1.293-0.11-2.597-0.146-3.88-0.321c-1.286-0.156-2.576-0.283-3.855-0.479l-3.827-0.626
		l-3.806-0.776l-3.784-0.936l2.297-5.963c1.145,0.658,2.292,1.338,3.47,2.354c0.591,0.545,1.197,1.116,1.766,2.045
		c0.556,0.817,1.085,2.323,0.799,3.817c-0.274,1.494-1.099,2.511-1.796,3.184c-0.703,0.626-1.41,1.099-2.066,1.438
		c-1.331,0.711-2.59,1.144-3.838,1.51c-2.495,0.711-4.931,1.111-7.423,1.35c-1.253,0.11-2.491,0.186-3.866,0.136l-0.259-0.013
		l-0.223-0.012l-0.109-0.012l-0.435-0.045l-0.872-0.091c-0.586-0.065-1.146-0.108-1.753-0.193c-1.234-0.213-2.516-0.385-3.7-0.646
		c-1.179-0.278-2.381-0.49-3.535-0.825c-2.333-0.605-4.627-1.297-6.88-2.076c-2.265-0.754-4.48-1.61-6.682-2.495
		c-1.108-0.429-2.204-0.927-3.265-1.37c-1.07-0.454-2.167-0.971-3.246-1.458c-2.147-1.013-4.262-2.047-6.354-3.139
		c-2.095-1.086-4.171-2.203-6.214-3.378c-2.056-1.153-4.066-2.386-6.076-3.614c-1.988-1.269-3.968-2.546-5.896-3.902
		c-0.981-0.652-1.923-1.365-2.874-2.063c-0.953-0.691-1.898-1.397-2.813-2.146c-1.863-1.445-3.647-2.999-5.397-4.585l-2.532-2.481
		l-2.384-2.627l-2.2-2.789c-0.671-0.979-1.305-1.981-1.955-2.968l0.782-0.491c0.701,0.917,1.377,1.847,2.087,2.748l2.316,2.562
		l2.489,2.396l2.627,2.248c1.797,1.448,3.611,2.872,5.514,4.184c0.931,0.682,1.892,1.321,2.865,1.947
		c0.966,0.632,1.921,1.278,2.919,1.867c1.958,1.225,3.968,2.37,5.98,3.505c2.037,1.099,4.069,2.196,6.146,3.217
		c2.063,1.043,4.157,2.025,6.263,2.975c2.101,0.953,4.233,1.856,6.358,2.722c1.071,0.418,2.104,0.86,3.202,1.268
		c1.111,0.408,2.16,0.833,3.245,1.197c2.167,0.764,4.342,1.495,6.537,2.119c2.189,0.651,4.395,1.208,6.602,1.682
		c1.104,0.271,2.213,0.408,3.314,0.622c1.104,0.192,2.146,0.274,3.217,0.426c0.551,0.053,1.157,0.075,1.732,0.113l0.873,0.053
		l0.438,0.026l0.109,0.006c0.096,0.007-0.099-0.006-0.072-0.005h0.022l0.046-0.001h0.177c0.96,0.001,2.056-0.097,3.119-0.231
		c2.146-0.282,4.318-0.729,6.292-1.376c0.979-0.321,1.921-0.709,2.631-1.132c0.376-0.204,0.618-0.425,0.786-0.572
		c0.124-0.146,0.008-0.124-0.07,0.212c-0.082,0.344,0.101,0.64-0.007,0.504c-0.037-0.07-0.286-0.314-0.562-0.547
		c-0.61-0.488-1.489-0.992-2.383-1.462l-20.47-10.72l22.766,4.757l3.535,0.738l3.576,0.595l3.601,0.456
		c1.199,0.138,2.406,0.21,3.607,0.326c1.203,0.133,2.406,0.124,3.606,0.195c1.204,0.077,2.4,0.052,3.595,0.045l1.793-0.01
		l1.71-0.109l1.71-0.103c0.56-0.024,1.224-0.146,1.831-0.214l1.861-0.242l0.465-0.06l0.059-0.008l0.028-0.003l0.015-0.003
		c0.036-0.005-0.251,0.034-0.124,0.019l0.093-0.021l0.183-0.038c0.244-0.055,0.49-0.087,0.731-0.16
		c0.97-0.236,1.928-0.571,2.829-0.999c0.902-0.426,1.754-0.938,2.501-1.511c0.749-0.566,1.382-1.222,1.778-1.806
		c0.434-0.583,0.452-1.078,0.411-0.866c0,0.082,0.07,0.287,0.082,0.315c0.046,0.024-0.034,0.011-0.027-0.018
		c-0.098-0.029-0.092-0.083-0.236-0.137c-0.425-0.238-1.27-0.507-2.203-0.66c-0.934-0.171-2.021-0.221-3.099-0.262l-0.093-8.231
		c0.786-0.059,1.978-0.277,3.08-0.519c1.131-0.247,2.288-0.54,3.444-0.852c2.316-0.627,4.639-1.35,6.938-2.121
		c4.601-1.555,9.148-3.326,13.443-5.38c2.144-1.025,4.221-2.136,6.108-3.338c0.938-0.602,1.827-1.23,2.586-1.867
		c0.752-0.625,1.382-1.296,1.682-1.751c0.135-0.216,0.165-0.35,0.146-0.288c-0.021,0.042-0.065,0.383,0.008,0.613
		c0.058,0.235,0.141,0.296,0.067,0.212c-0.111-0.09-0.274-0.265-0.596-0.46c-0.594-0.394-1.48-0.813-2.436-1.178
		c-0.958-0.371-2.038-0.683-3.114-0.983l-27.997-7.841l29.076-1.359c1.051-0.049,2.11-0.126,3.177-0.24
		c1.065-0.116,2.127-0.271,3.187-0.441c1.053-0.191,2.101-0.399,3.132-0.648c1.024-0.259,2.047-0.523,3.025-0.854
		c0.499-0.15,0.986-0.317,1.455-0.508c0.474-0.183,0.962-0.348,1.403-0.565c0.924-0.388,1.774-0.842,2.596-1.307l1.156-0.741
		l1.025-0.799l0.875-0.842c0.184-0.234,0.315-0.412,0.519-0.589c0.272-0.409,0.596-0.979,0.889-1.461l0.029-0.047l0.006-0.012
		c-0.345,0.619-0.094,0.167-0.168,0.303l0.006-0.018l0.027-0.07l0.056-0.141l0.114-0.277l0.24-0.552
		c0.152-0.365,0.195-0.726,0.321-1.082c0.112-0.357,0.087-0.693,0.163-1.038c0.047-0.341-0.019-0.653,0.01-0.979l-0.147-0.913
		c-0.196-0.565-0.386-1.127-0.754-1.605c-0.09-0.12-0.173-0.243-0.253-0.373l-0.325-0.326c-0.186-0.246-0.462-0.418-0.709-0.618
		c-0.22-0.231-0.57-0.327-0.831-0.525c-0.289-0.164-0.632-0.26-0.938-0.42l-1.036-0.286l-1.106-0.15l-1.163-0.016
		c-0.398,0.051-0.795,0.09-1.195,0.12l-20.231,1.487l16.857-10.572l5.264-3.301l5.151-3.405c1.667-1.183,3.366-2.332,5.009-3.541
		c1.605-1.243,3.262-2.436,4.827-3.717c1.531-1.311,3.137-2.555,4.607-3.917l2.196-2.052c0.729-0.686,1.492-1.362,2.117-2.069
		l1.98-2.099l0.998-1.042c0.335-0.349,0.669-0.797,1.002-1.189l2.005-2.438l1.003-1.219l0.757-1.024
		c2.261-3.133,4.142-6.429,5.211-9.761c0.534-1.663,0.859-3.326,0.934-4.952c0.035-0.408,0.033-0.813,0.01-1.212l-0.015-0.604
		l-0.058-0.501l-0.043-0.501c-0.018-0.182-0.097-0.494-0.142-0.735l-0.159-0.772l-0.039-0.193l-0.004-0.024
		c-0.014-0.051,0.084,0.363,0.04,0.178l-0.013-0.04l-0.022-0.08l-0.095-0.32c-0.44-1.773-1.101-3.314-1.766-4.293
		c-0.727-0.959-1.062-1.249-2.283-1.51c-1.198-0.25-3.066-0.2-5.064-0.05c-2.012,0.148-4.189,0.348-6.419,0.454l-16.474,0.783
		l13.878-9.109l5.815-3.817l5.611-4.2l5.403-4.508c1.773-1.536,3.451-3.186,5.185-4.772c0.879-0.784,1.691-1.632,2.504-2.479
		l2.453-2.532c1.684-1.649,3.139-3.487,4.701-5.237c1.603-1.751,2.937-3.579,4.346-5.383l1.056-1.353
		c0.355-0.439,0.706-0.901,1.038-1.421l2.029-3.007l1.015-1.503l0.424-0.627l0.463-0.752c0.615-1.002,1.208-1.997,1.767-2.994
		c1.121-1.994,2.124-4.001,2.908-6.017c0.784-2.011,1.347-4.035,1.535-5.96c0.187-1.92-0.005-3.729-0.632-5.294
		c-0.163-0.304-0.299-0.616-0.416-0.951l-1.023-1.495l-0.771-0.869c-0.301-0.371-0.636-0.551-0.938-0.854
		c-1.271-1.014-2.359-1.197-4.017-0.991c-1.658,0.269-3.665,1.207-5.719,2.267c-2.075,1.069-4.267,2.296-6.73,3.344l-11.815,5.027
		l7.79-10.081c2.852-3.687,5.627-7.39,8.198-11.195c1.279-1.904,2.525-3.826,3.682-5.789c0.606-0.97,1.136-1.971,1.689-2.965
		c0.566-0.987,1.063-2.003,1.563-3.017c0.523-1.006,0.979-2.037,1.42-3.073l0.674-1.551l0.586-1.578l0.588-1.579l0.49-1.605
		l0.491-1.606c0.147-0.539,0.257-1.085,0.389-1.628c0.262-1.086,0.523-2.173,0.663-3.281c0.17-1.1,0.375-2.2,0.426-3.313
		c0.073-1.105,0.229-2.236,0.188-3.308l0.008-1.629l0.005-0.815c-0.009-0.283-0.041-0.583-0.062-0.873l-0.138-1.754l-0.068-0.878
		l-0.035-0.438l-0.043-0.336c-0.14-1.14-0.296-2.271-0.482-3.388c-0.371-2.234-0.853-4.427-1.547-6.499
		c-0.695-2.065-1.62-4.014-2.879-5.574c-1.249-1.555-2.895-2.646-4.72-3.087l-0.649-0.13c-0.229-0.039-0.392-0.125-0.721-0.113
		l-1.613-0.048c-0.951,0.093-1.916,0.244-2.844,0.639c-1.868,0.726-3.616,2.015-5.133,3.574c-1.521,1.563-2.843,3.378-3.986,5.299
		c-1.142,1.924-2.109,3.97-2.84,6.061l-2.915-1.186c0.429-0.777,0.903-1.021,1.114-1.21l0.137-0.104
		c0.01-0.012,0.02-0.021,0.032-0.028c0.026-0.016-0.043,0.036-0.045,0.062c-0.014,0.025,0.002,0.019-0.029,0.072
		c-0.029,0.055-0.052,0.117-0.063,0.182l-0.166-1.426c-0.035-1.403,0.044-2.769,0.265-4.066c0.41-2.613,1.088-5.092,1.807-7.537
		c0.727-2.441,1.528-4.836,2.299-7.218c0.388-1.191,0.766-2.377,1.112-3.56c0.188-0.599,0.319-1.158,0.484-1.739
		c0.134-0.583,0.313-1.255,0.396-1.796c0.367-2.448,0.864-4.874,1.13-7.34l0.35-3.708c0.132-1.234,0.219-2.473,0.241-3.719
		c0.076-2.491,0.222-4.957,0.201-7.483l0.021-3.771l0.005-0.942l-0.019-0.873c-0.025-0.594-0.068-1.199-0.127-1.808
		c-0.488-4.884-1.399-9.816-2.566-14.634c-1.205-4.804-2.632-9.599-4.676-13.969c-1.017-2.129-2.276-4.306-3.77-5.476
		c-0.363-0.275-0.718-0.457-1.014-0.528c-0.3-0.069-0.542-0.058-0.838,0.041c-0.59,0.188-1.348,0.881-1.983,1.715
		c-0.641,0.844-1.238,1.878-1.732,2.873l-0.402,0.845l-0.101,0.213c-0.03,0.064-0.015,0.032-0.031,0.074l-0.042,0.105l-0.171,0.418
		l-0.685,1.673c-0.886,2.244-1.588,4.577-2.215,6.936c-2.432,9.494-3.266,19.48-4.683,29.515c-0.71,5.054-1.496,10.029-2.809,15.218
		c-0.318,1.271-0.68,2.436-1.019,3.659l-1.207,3.708l-1.202,3.633l-1.322,3.59c-3.563,9.559-7.656,18.944-12.535,27.947
		c-1.154,2.271-2.521,4.499-3.791,6.748l-0.972,1.682l-0.998,1.599l-1.999,3.198c-2.815,4.392-5.724,8.52-8.818,12.622
		c-6.166,8.163-12.806,15.972-20.004,23.234c-7.174,7.283-14.791,14.122-22.793,20.474c-7.99,6.366-16.416,12.184-25.176,17.435
		l-6.635,3.829c-2.237,1.245-4.535,2.424-6.8,3.637c-2.272,1.198-4.524,2.227-6.786,3.349c-2.342,1.176-4.712,2.151-7.057,3.144
		c-9.389,3.861-18.743,7.412-27.974,11.291c-9.23,3.846-18.379,7.863-27.189,12.497c-8.808,4.602-17.38,9.747-24.841,16.204
		c-3.71,3.228-7.121,6.839-9.679,11.003l-0.945,1.57c-0.313,0.525-0.528,1.096-0.8,1.643c-0.249,0.555-0.54,1.098-0.759,1.666
		l-0.574,1.737c-0.459,1.155-0.563,2.344-0.83,3.533c-0.158,0.581-0.125,1.235-0.175,1.856l-0.099,1.883L286.951,412.932z"/>
	<path d="M278.988,364.456c0.01-0.491-0.051-0.958,0.014-1.47c0.079-0.505,0.105-1.052,0.258-1.523
		c0.229-0.986,0.582-1.933,0.99-2.845c0.813-1.833,1.88-3.525,3.036-5.127c2.303-3.226,4.963-6.142,7.727-8.927
		c5.534-5.573,11.547-10.59,17.634-15.465c3.039-2.445,6.149-4.793,9.226-7.154c1.533-1.178,3.078-2.353,4.55-3.537l4.538-3.645
		c5.964-4.876,11.885-9.747,17.275-15.155c5.407-5.366,10.594-10.939,15.037-17.102l1.715-2.27c0.553-0.772,1.061-1.577,1.593-2.363
		c1.048-1.584,2.106-3.162,3.18-4.729l3.015-4.908c1.054-1.654,1.905-3.305,2.857-4.957c0.94-1.643,1.858-3.305,2.743-5.007
		c0.884-1.696,1.829-3.36,2.66-5.084l2.516-5.162l2.386-5.227c0.821-1.734,1.539-3.51,2.274-5.281
		c0.73-1.773,1.498-3.533,2.154-5.336l2.053-5.381l1.876-5.45c2.388-7.305,4.483-14.723,6.113-22.256
		c1.647-7.53,2.774-15.171,3.535-22.852c0.248-3.849,0.555-7.698,0.589-11.557c0.05-1.937,0.125-3.849,0.033-5.767
		c-0.078-1.887-0.247-3.833-0.396-5.758c-0.31-3.865-0.656-7.751-0.729-11.684c-0.059-3.924-0.024-7.928,1.151-11.918
		c0.657-2.022,1.508-3.842,2.915-5.583c0.693-0.851,1.619-1.681,2.869-2.145c1.265-0.464,2.738-0.302,3.85,0.189
		c2.247,1.019,3.641,2.674,4.921,4.277c1.251,1.636,2.303,3.355,3.267,5.106c0.963,1.751,1.835,3.537,2.643,5.345
		c0.209,0.475,0.39,0.854,0.607,1.412l0.535,1.354c0.347,0.915,0.733,1.771,1.032,2.761l0.947,2.896l0.769,2.898
		c0.276,0.963,0.459,1.944,0.66,2.922c0.186,0.981,0.435,1.955,0.557,2.945c0.679,3.943,0.947,7.941,1.036,11.947
		c0.033,4.009-0.279,8.023-0.861,12.014c-0.676,3.975-1.581,7.937-2.957,11.781c-1.415,3.828-3.193,7.551-5.425,11.055l-5.111-3.408
		c0.822-1.323,1.691-3.018,2.554-4.636c0.868-1.639,1.746-3.303,2.664-4.96c1.838-3.316,3.802-6.627,6.23-9.809
		c1.228-1.587,2.568-3.149,4.259-4.588c0.432-0.356,0.852-0.715,1.354-1.042l0.729-0.495l0.816-0.45
		c0.517-0.312,1.177-0.534,1.785-0.771c0.665-0.184,1.339-0.382,2.074-0.433c1.468-0.19,3.017,0.125,4.371,0.645
		c0.622,0.303,1.28,0.622,1.815,1c0.501,0.39,1.095,0.77,1.492,1.201c0.414,0.426,0.903,0.849,1.237,1.293l0.533,0.666l0.265,0.334
		l0.133,0.168l0.032,0.042l0.134,0.201l0.048,0.073l0.376,0.587c0.134,0.224,0.229,0.321,0.4,0.665
		c0.292,0.58,0.646,1.225,0.841,1.774c0.886,2.22,1.222,4.543,1.227,6.742c0.004,2.207-0.304,4.317-0.765,6.333
		c-0.943,4.029-2.481,7.704-4.225,11.207c-1.79,3.477-3.798,6.782-5.967,9.952c-2.173,3.174-4.476,6.223-6.979,9.18l-5.132-5.296
		c2.113-1.687,4.274-3.47,6.657-5.107c1.19-0.822,2.431-1.623,3.765-2.364c1.339-0.737,2.77-1.427,4.406-1.945
		c1.618-0.514,3.562-0.855,5.709-0.515c2.167,0.322,4.279,1.65,5.571,3.179c1.313,1.536,2.067,3.16,2.609,4.696
		c0.261,0.77,0.509,1.542,0.678,2.293l0.131,0.565l0.067,0.283l0.032,0.142l0.016,0.07l0.01,0.036l0.048,0.266l0.136,1.012
		l0.137,1.01c0.026,0.412,0.033,0.894,0.04,1.338l0.004,1.358c-0.025,0.428-0.086,0.819-0.132,1.229l-0.15,1.217
		c-0.07,0.398-0.176,0.784-0.264,1.176l-0.285,1.17c-0.107,0.382-0.251,0.746-0.378,1.119c-0.253,0.747-0.522,1.483-0.857,2.169
		c-0.317,0.703-0.632,1.407-1.009,2.054c-0.705,1.341-1.506,2.589-2.335,3.796c-0.832,1.208-1.715,2.348-2.611,3.463
		c-0.905,1.105-1.831,2.172-2.769,3.218c-1.877,2.077-3.805,4.048-5.64,5.991l-4.433-4.364l1.5-1.272
		c0.54-0.383,1.077-0.772,1.628-1.143c0.586-0.333,1.167-0.669,1.762-0.984c0.628-0.271,1.249-0.551,1.887-0.797
		c0.665-0.196,1.323-0.409,2-0.57l1.036-0.168c0.347-0.046,0.688-0.12,1.039-0.139c0.704-0.015,1.408-0.043,2.107-0.02l2.081,0.267
		l2.119,0.272l0.192,2.108l0.211,2.312c0.034,0.773,0.006,1.555,0.005,2.33c-0.026,0.776-0.143,1.548-0.216,2.32
		c-0.098,0.769-0.283,1.521-0.428,2.281c-0.172,0.75-0.416,1.477-0.624,2.213c-0.243,0.721-0.53,1.421-0.796,2.129l-0.936,2.038
		l-1.053,1.942l-1.133,1.859l-1.188,1.792c-0.81,1.168-1.63,2.31-2.458,3.43l-2.462,3.317c-0.809,1.096-1.591,2.196-2.351,3.3
		l-3.012-2.956c0.435-0.241,0.879-0.492,1.315-0.705l1.275-0.504c0.832-0.275,1.647-0.504,2.439-0.697l2.289-0.548
		c0.377-0.088,0.7-0.189,1.055-0.282c0.344-0.096,0.611-0.21,0.926-0.309l2.059-0.648l0.487,1.666l0.838,2.866
		c0.144,0.981,0.305,1.961,0.417,2.94c0.005,0.983,0.051,1.969,0.011,2.944c-0.118,0.966-0.187,1.943-0.358,2.893
		c-0.228,0.938-0.411,1.889-0.696,2.802c-0.326,0.899-0.602,1.816-0.974,2.689c-0.405,0.858-0.77,1.734-1.213,2.567
		c-0.472,0.815-0.913,1.647-1.412,2.441c-0.529,0.772-1.044,1.555-1.588,2.313l-1.743,2.184l-1.884,2.05l-2.017,1.912l-2.134,1.769
		c-0.74,0.552-1.51,1.066-2.26,1.597c-0.776,0.497-1.58,0.952-2.365,1.426c-0.815,0.428-1.646,0.821-2.466,1.23l-0.309-0.62
		c0.766-0.473,1.538-0.925,2.288-1.408c0.724-0.531,1.46-1.037,2.166-1.583c0.681-0.58,1.377-1.139,2.041-1.73l1.926-1.847
		l1.797-1.967l1.654-2.079l1.498-2.183c0.462-0.75,0.89-1.52,1.333-2.273c0.41-0.773,0.764-1.575,1.147-2.356
		c0.352-0.796,0.622-1.623,0.937-2.426c0.283-0.817,0.465-1.659,0.704-2.481c0.199-0.832,0.283-1.681,0.442-2.513
		c0.102-0.838,0.103-1.681,0.167-2.517c-0.019-0.834-0.111-1.663-0.154-2.489l-0.488-2.421l-0.824-2.311l2.545,1.017
		c-0.423,0.176-0.876,0.383-1.284,0.523c-0.398,0.132-0.82,0.286-1.206,0.399l-2.267,0.686l-1.067,0.344l-1,0.368l-0.901,0.408
		c-0.262,0.15-0.492,0.304-0.746,0.445l-7.4,4.118l4.389-7.073c0.747-1.204,1.507-2.389,2.281-3.551l2.305-3.439
		c0.758-1.135,1.492-2.268,2.2-3.401l1.018-1.707l0.938-1.719l0.835-1.734l0.724-1.749c0.192-0.591,0.412-1.176,0.585-1.767
		c0.14-0.596,0.318-1.185,0.431-1.782c0.083-0.601,0.217-1.193,0.267-1.793c0.024-0.602,0.103-1.199,0.098-1.8
		c-0.031-0.602-0.023-1.202-0.073-1.802l-0.23-1.799l2.312,2.379c-0.436-0.028-0.866-0.064-1.298-0.111
		c-0.43,0.01-0.858,0.053-1.289,0.065c-0.214,0.016-0.425,0.083-0.639,0.119l-0.637,0.122c-0.42,0.124-0.835,0.285-1.255,0.413
		c-0.408,0.182-0.813,0.389-1.221,0.572l-1.179,0.721l-1.129,0.844l-1.067,0.957l-4.433-4.365c1.847-2.062,3.672-4.032,5.388-6.04
		c0.852-1.005,1.682-2.016,2.472-3.037c0.78-1.025,1.535-2.059,2.217-3.113c0.681-1.053,1.324-2.118,1.853-3.2
		c0.298-0.536,0.518-1.084,0.745-1.629c0.253-0.542,0.43-1.091,0.596-1.638c0.202-0.545,0.325-1.093,0.436-1.638
		c0.057-0.271,0.134-0.543,0.178-0.814l0.079-0.811c0.024-0.265,0.071-0.549,0.082-0.798l-0.018-0.682
		c-0.004-0.235,0.017-0.436,0.007-0.701l-0.15-1.009l-0.153-1.008c0.018,0.099-0.042-0.243,0.04,0.217l-0.004-0.013l-0.006-0.027
		l-0.015-0.053l-0.027-0.106l-0.054-0.213l-0.106-0.426c-0.135-0.575-0.32-1.097-0.499-1.611c-0.362-1.021-0.848-1.878-1.322-2.403
		c-0.5-0.504-0.836-0.69-1.372-0.779c-0.546-0.068-1.369-0.006-2.329,0.329c-1.926,0.644-4.072,1.961-6.13,3.429
		c-2.07,1.492-4.141,3.133-6.273,4.846l-5.132-5.295c2.302-2.708,4.49-5.589,6.52-8.541c2.033-2.955,3.892-6.009,5.51-9.135
		c1.602-3.119,3.001-6.325,3.802-9.527c0.801-3.184,0.969-6.375,0.021-8.862c-0.104-0.33-0.228-0.491-0.315-0.757
		c-0.008-0.086-0.206-0.359-0.306-0.534l-0.365-0.592l-0.557-0.721c-0.212-0.311-0.453-0.477-0.671-0.732
		c-0.219-0.271-0.447-0.357-0.657-0.563c-0.214-0.166-0.414-0.23-0.606-0.365c-0.379-0.11-0.687-0.246-1.078-0.184
		c-0.764,0.008-1.972,0.637-3.118,1.574c-1.162,0.946-2.293,2.185-3.357,3.516c-2.133,2.686-4.041,5.742-5.855,8.889
		c-0.909,1.577-1.797,3.181-2.694,4.809c-0.914,1.643-1.767,3.245-2.95,5.05l-5.111-3.408c2.015-3.001,3.686-6.263,5.053-9.679
		c1.315-3.441,2.324-7.021,3.077-10.672c0.672-3.668,1.102-7.394,1.266-11.146c0.093-3.75,0.025-7.524-0.439-11.263
		c-0.067-0.942-0.262-1.862-0.391-2.796c-0.146-0.93-0.271-1.866-0.49-2.781l-0.591-2.761l-0.735-2.676
		c-0.208-0.885-0.581-1.818-0.887-2.731l-0.476-1.375c-0.116-0.352-0.328-0.862-0.492-1.282c-0.703-1.765-1.465-3.504-2.301-5.19
		c-0.838-1.685-1.756-3.321-2.802-4.813c-1.037-1.465-2.269-2.867-3.573-3.499c-0.648-0.304-1.228-0.38-1.814-0.214
		c-0.589,0.187-1.219,0.634-1.765,1.265c-1.104,1.229-1.978,2.967-2.543,4.612c-1.116,3.456-1.295,7.326-1.298,11.133
		c0.038,3.83,0.351,7.683,0.63,11.553c0.289,3.854,0.545,7.852,0.394,11.727c0.006,3.904-0.263,7.798-0.468,11.696
		c-0.504,7.792-1.504,15.54-2.708,23.267c-1.257,7.719-3.003,15.358-5.038,22.925c-2.011,7.581-4.57,15.012-7.434,22.329
		c-0.745,1.818-1.445,3.657-2.238,5.456l-2.44,5.372c-0.806,1.795-1.73,3.533-2.592,5.303c-0.442,0.879-0.863,1.768-1.326,2.64
		l-1.446,2.602c-0.976,1.714-1.906,3.516-2.929,5.14l-3.051,5.028c-1.097,1.648-2.212,3.286-3.336,4.917
		c-0.563,0.813-1.104,1.644-1.691,2.441l-1.822,2.352c-4.741,6.359-10.188,12.176-15.931,17.586
		c-5.733,5.43-11.936,10.293-18.143,15.035l-4.688,3.453c-1.603,1.184-3.195,2.293-4.787,3.413l-9.493,6.691
		c-6.285,4.486-12.459,9.119-18.267,14.149c-2.871,2.543-5.683,5.168-8.15,8.068c-1.239,1.446-2.377,2.974-3.316,4.604
		c-0.469,0.814-0.882,1.662-1.181,2.543c-0.192,0.439-0.24,0.872-0.365,1.313c-0.109,0.442-0.099,0.957-0.155,1.431L278.988,364.456
		z"/>
	<path d="M306.364,552.354c1.23,3.083,2.366,6.183,3.563,9.267c1.189,3.083,2.4,6.157,3.639,9.22
		c2.476,6.125,5.04,12.21,7.765,18.22c5.463,12.009,11.388,23.815,18.322,34.976c3.472,5.571,7.171,10.994,11.24,16.094
		c4.075,5.085,8.513,9.883,13.504,13.927c2.497,2.012,5.129,3.83,7.896,5.348c0.704,0.339,1.396,0.765,2.106,1.035
		c0.405,0.177,0.674,0.263,1.028,0.396c0.35,0.118,0.699,0.24,1.053,0.336c1.406,0.407,2.845,0.618,4.18,0.565
		c1.335-0.055,2.549-0.38,3.432-0.996c0.894-0.595,1.545-1.438,1.972-2.57c0.869-2.273,0.724-5.345,0.199-8.301l5.744-0.922
		c0.272,1.322,0.942,2.656,2.001,3.841c1.043,1.187,2.39,2.228,3.876,3.064c2.975,1.681,6.522,2.572,9.825,2.479
		c1.648-0.043,3.236-0.363,4.587-0.992c1.357-0.624,2.459-1.546,3.291-2.733c0.85-1.176,1.409-2.662,1.706-4.296
		c0.156-0.814,0.225-1.676,0.255-2.547c0.045-0.871-0.022-1.769-0.062-2.669l-0.393-9.009l5.363,6.894
		c0.603,0.775,1.67,1.63,2.788,2.35c1.133,0.73,2.376,1.377,3.657,1.936c2.564,1.104,5.313,1.93,8.008,2.152
		c2.671,0.228,5.332-0.215,6.792-1.804c0.749-0.775,1.243-1.864,1.47-3.126c0.233-1.26,0.207-2.65,0.045-4.048l0.479,0.93
		c-0.335-0.712-1.291-1.31,0.538-2.713c2.375-0.023,0.754,0.032,1.293,0.032l0.116,0.059l0.075,0.044l0.091,0.059l0.154,0.099
		l0.288,0.187l0.577,0.367l1.167,0.71c0.785,0.466,1.583,0.907,2.395,1.326c1.634,0.813,3.313,1.536,5.029,2.132
		c3.419,1.207,7.088,1.784,10.576,1.299c1.735-0.277,3.391-0.884,4.848-1.803c1.455-0.92,2.716-2.151,3.685-3.608
		c1.976-2.902,2.982-6.445,3.481-10.019l0.019,0.612c-1.126-4.119-3.651-7.744-6.664-10.874c-3.038-3.139-6.58-5.835-10.286-8.304
		c-3.726-2.45-7.591-4.74-11.557-6.893c-3.948-2.177-7.968-4.267-12.023-6.313c-8.098-4.126-16.346-8.065-24.515-12.255
		c-4.086-2.092-8.171-4.214-12.211-6.443c-4.025-2.255-8.02-4.586-11.955-7.034c-3.95-2.431-7.784-5.071-11.539-7.836
		c-3.751-2.768-7.406-5.693-10.903-8.82c-3.471-3.153-6.788-6.5-9.869-10.07c-3.091-3.562-5.89-7.395-8.355-11.431
		c-4.955-8.054-8.391-17.091-9.796-26.37c-0.729-4.634-0.973-9.318-0.765-13.955c0.176-4.638,0.761-9.232,1.726-13.726l0.685,0.1
		c-0.306,4.552-0.405,9.095-0.091,13.595c0.307,4.498,1.012,8.938,2.053,13.267c1.073,4.324,2.52,8.529,4.36,12.546
		c1.851,4.012,4.047,7.849,6.552,11.477c5.041,7.238,11.208,13.674,18.04,19.364c3.392,2.876,6.928,5.6,10.591,8.171
		c3.655,2.58,7.437,4.995,11.234,7.409c3.813,2.388,7.702,4.677,11.64,6.9c3.923,2.251,7.888,4.456,11.886,6.617
		c8,4.32,16.094,8.558,24.158,12.959c4.021,2.22,8.031,4.491,11.979,6.912c3.928,2.447,7.821,5.001,11.521,7.877
		c3.694,2.87,7.259,6.001,10.331,9.672c3.066,3.642,5.604,7.96,6.651,12.76l0.077,0.349l-0.058,0.266
		c-0.412,1.9-0.965,3.782-1.688,5.612c-0.713,1.831-1.629,3.615-2.834,5.223c-1.206,1.599-2.682,3.042-4.421,4.1
		c-1.734,1.063-3.69,1.723-5.658,2.024c-1.971,0.333-3.966,0.326-5.909,0.11c-1.945-0.227-3.847-0.646-5.716-1.154
		c-1.866-0.522-3.686-1.178-5.464-1.929c-0.894-0.361-1.777-0.749-2.652-1.16l-1.306-0.637l-0.646-0.331l-0.317-0.167l-0.15-0.079
		l-0.061-0.03c-0.01-0.004-0.015-0.006-0.002,0.001l0.077,0.038c0.531-0.002-1.096,0.048,1.271,0.025
		c1.816-1.408,0.874-1.995,0.541-2.701l0.479,0.931c0.282,1.608,0.431,3.29,0.244,5.051c-0.182,1.743-0.795,3.631-2.055,5.163
		c-1.242,1.545-3.008,2.565-4.742,3.1c-1.75,0.549-3.503,0.71-5.201,0.692c-3.397-0.063-6.628-0.778-9.718-1.908
		c-1.546-0.572-3.057-1.247-4.534-2.085c-1.476-0.859-2.928-1.789-4.323-3.322l4.97-2.114c0.264,2.162,0.327,4.406,0.004,6.712
		c-0.328,2.295-1.064,4.683-2.469,6.811c-1.398,2.126-3.477,3.84-5.734,4.893c-2.268,1.07-4.675,1.533-7.004,1.614
		c-2.338,0.092-4.618-0.253-6.803-0.836c-2.183-0.596-4.28-1.464-6.247-2.617c-1.961-1.157-3.807-2.599-5.369-4.439
		c-1.55-1.821-2.819-4.138-3.222-6.758l5.747-0.923c0.229,1.775,0.356,3.597,0.262,5.482c-0.092,1.875-0.428,3.847-1.261,5.784
		c-0.821,1.923-2.318,3.811-4.293,4.894c-1.958,1.116-4.115,1.438-6.073,1.378c-1.976-0.069-3.825-0.502-5.551-1.133
		c-0.437-0.152-0.858-0.332-1.28-0.509c-0.407-0.187-0.908-0.404-1.244-0.594l-2.302-1.24c-2.999-1.724-5.787-3.741-8.394-5.933
		c-5.207-4.403-9.695-9.478-13.776-14.79c-4.075-5.326-7.735-10.926-11.104-16.675c-3.37-5.748-6.469-11.638-9.376-17.609
		c-2.909-5.973-5.614-12.034-8.158-18.158c-2.546-6.123-4.95-12.3-7.219-18.524c-1.13-3.112-2.229-6.236-3.308-9.365
		c-1.084-3.127-2.113-6.277-3.219-9.381L306.364,552.354z"/>
	<path d="M291.838,378.604c-3.67-2.015-7.081-4.554-10.235-7.343c-3.147-2.805-6.077-5.844-8.858-8.986
		c-2.766-3.155-5.423-6.387-8.033-9.625c-2.592-3.252-5.161-6.497-7.801-9.642c-2.641-3.142-5.295-6.236-8.147-9.08
		c-2.841-2.852-5.863-5.458-9.063-7.707c-3.21-2.235-6.654-4.046-10.286-5.238c-3.635-1.177-7.422-1.841-11.28-1.905
		c-3.889-0.033-7.73,0.352-11.487,1.316c-3.731,0.983-7.359,2.428-10.658,4.465c-3.298,2.027-6.313,4.563-8.8,7.59
		c-2.493,3.016-4.496,6.478-5.875,10.21c-0.697,1.891-1.257,3.735-1.524,5.698c-0.299,1.962-0.386,4.001-0.451,6.066
		c-0.143,4.12-0.156,8.43-1.389,12.661c-0.317,1.05-0.723,2.083-1.23,3.069c-0.143,0.257-0.236,0.465-0.419,0.76l-0.413,0.66
		c-0.246,0.431-0.645,0.909-0.965,1.358c-1.373,1.734-2.975,3.191-4.633,4.521c-3.313,2.658-6.931,4.753-9.779,7.537l-0.816-2.012
		c5.9-0.175,11.805-1.095,17.847-1.615c3.023-0.25,6.089-0.434,9.209-0.272c3.11,0.152,6.3,0.622,9.373,1.731
		c3.071,1.078,6,2.828,8.404,5.102c1.231,1.115,2.293,2.377,3.291,3.675l0.708,0.998c0.13,0.193,0.203,0.279,0.38,0.56l0.295,0.477
		l0.591,0.961l0.607,1.103c1.564,2.885,2.651,5.891,3.49,8.964c0.8,3.077,1.303,6.188,1.631,9.29
		c0.626,6.21,0.497,12.366,0.212,18.416c-0.281,6.034-0.793,12.06-0.958,17.816c-0.056,3.048-0.084,5.87,0.034,8.801
		c0.097,2.916,0.276,5.823,0.53,8.719c0.53,5.791,1.477,11.522,2.88,17.118c1.337,5.613,3.239,11.067,5.633,16.279
		c1.23,2.591,2.565,5.129,4.021,7.598c1.498,2.438,3.057,4.853,4.833,7.105c0.847,1.157,1.803,2.228,2.713,3.339
		c0.967,1.061,1.903,2.152,2.921,3.167c1.972,2.097,4.13,4.016,6.338,5.877c4.491,3.636,9.336,6.882,14.517,9.614
		c5.293,2.692,10.719,5.348,16.011,8.21c5.302,2.859,10.565,5.814,15.636,9.101c5.063,3.292,10.01,6.796,14.55,10.817
		c4.507,4.01,8.75,8.563,11.346,14.094l-0.619,0.309c-1.436-2.588-3.295-4.91-5.337-7.038c-2.045-2.133-4.264-4.096-6.59-5.926
		c-4.656-3.664-9.705-6.819-14.862-9.76c-5.172-2.922-10.464-5.642-15.842-8.205c-5.38-2.568-10.815-4.971-16.298-7.504
		c-5.589-2.509-10.973-5.605-15.962-9.287c-4.97-3.702-9.589-7.959-13.542-12.792c-3.988-4.804-7.423-10.08-10.164-15.689
		c-2.723-5.613-4.894-11.483-6.457-17.489c-1.579-6.007-2.505-12.143-3.067-18.276c-0.27-3.069-0.443-6.144-0.459-9.214
		c-0.059-3.057,0.041-6.224,0.159-9.161c0.3-6.214,0.967-12.112,1.41-18.032c0.454-5.897,0.689-11.747,0.316-17.482
		c-0.399-5.704-1.463-11.36-3.783-16.324l-0.424-0.895l-0.537-0.98l-0.271-0.492l-0.236-0.381l-0.536-0.872
		c-0.755-1.124-1.555-2.222-2.489-3.181c-1.823-1.967-4.054-3.517-6.563-4.592c-5.042-2.186-10.986-2.471-16.863-2.312
		c-5.913,0.182-11.907,0.831-17.99,0.86l-3.089,0.015l2.271-2.027c3.245-2.895,6.867-5.01,10.064-7.505
		c1.588-1.247,3.105-2.583,4.273-4.143c0.271-0.403,0.556-0.714,0.82-1.191l0.404-0.665c0.091-0.146,0.215-0.411,0.321-0.61
		c0.43-0.867,0.773-1.778,1.043-2.72c1.102-3.79,0.931-7.914,0.892-12.064c-0.019-2.086-0.021-4.206,0.147-6.371
		c0.15-2.175,0.658-4.37,1.27-6.416c1.231-4.149,3.104-8.158,5.649-11.748c2.539-3.588,5.708-6.771,9.339-9.319
		c3.63-2.543,7.674-4.532,11.941-5.778c4.244-1.268,8.724-1.917,13.139-1.855c4.445,0.045,8.955,0.736,13.184,2.244
		c4.24,1.475,8.183,3.651,11.737,6.222c3.575,2.561,6.729,5.564,9.638,8.701c2.899,3.149,5.584,6.429,8.097,9.798
		c2.514,3.369,4.912,6.781,7.309,10.168c2.381,3.399,4.732,6.796,7.208,10.083c2.461,3.297,5.005,6.522,7.782,9.541
		c2.765,3.029,5.739,5.868,9.052,8.361L291.838,378.604z"/>
	<path d="M178.319,430.378c0.137-1.904,0.168-3.377,0.118-5.123c-0.047-1.687-0.216-3.37-0.467-5.042
		c-0.498-3.347-1.399-6.641-2.646-9.826c-2.48-6.383-6.343-12.281-10.941-17.578c-4.61-5.303-9.955-10.036-15.686-14.268
		c-5.737-4.225-11.868-7.988-18.244-11.211l0.341,0.128c-9.324-2.789-18.272-6.846-26.4-12.149
		c-8.133-5.291-15.431-11.795-21.666-19.152c-6.224-7.368-11.427-15.56-15.425-24.284c-1.991-4.365-3.706-8.856-5.005-13.468
		c-0.65-2.304-1.2-4.639-1.582-7.002c-0.348-2.356-0.673-4.772-0.279-7.14c-0.308,2.375,0.103,4.764,0.532,7.094
		c0.463,2.335,1.094,4.635,1.821,6.899c1.453,4.532,3.314,8.924,5.438,13.172c4.265,8.491,9.688,16.375,16.043,23.373
		c6.366,6.987,13.702,13.057,21.758,17.896c8.052,4.851,16.81,8.443,25.868,10.803l0.147,0.038l0.194,0.089
		c6.706,3.125,13.138,6.792,19.251,10.995c6.102,4.21,11.877,8.986,16.997,14.501c5.1,5.509,9.561,11.804,12.591,18.902
		c1.521,3.539,2.674,7.266,3.373,11.093c0.351,1.912,0.606,3.847,0.725,5.791c0.128,1.886,0.135,4.052,0.061,5.78L178.319,430.378z"
		/>
	<path d="M152.985,379.679c-4.951-7.506-8.618-19.16-7.219-28.445c1.531-10.162,9.36-16.655,11.523-26.013
		c2.297,10.522,9.463,20.635,8.887,31.159C165.757,364.098,159.242,379.579,152.985,379.679"/>
	<path d="M120.69,360.043c1.416-9.796-5.107-16.422-2.943-27.315c1.989-10.021,10.102-17.604,17.114-24.372
		c-4.016,11.202-1.56,19.831-0.481,30.826c1.318,13.429-7.941,12.19-14.119,21.452"/>
	<path d="M101.901,346.728c-3.615-7.137-6.25-14.607-6.955-22.378c-0.808-8.911,3.848-14.687,4.69-22.931
		c1.594,14.127,19.575,34.642,2.177,45.674"/>
	<path d="M74.39,315.623c0.055,0.972,0.645-0.058,0.812,0.931c16.624-2.936,13.626-31.762,9.762-43.232
		C81.08,288.148,61.956,298.723,74.39,315.623"/>
	<path d="M59.784,285.589c-15.746-15.463-1.996-29.942-4.827-47.837c6.046,7.423,15.424,16.839,17.015,26.38
		C74.068,276.699,64.466,276.941,59.784,285.589"/>
	<path d="M68.585,314.83c-2.5-5.324-6.788-13.368-11.544-17.276c-6.28-5.161-14.915-3.915-21.406-8.304
		c4.756,8.275,2.768,17.253,11.072,23.311C53.461,317.49,61.901,320.542,68.585,314.83"/>
	<path d="M84.3,333.784c-7.193-3.857-12.733-9.135-21.849-9.217c-7.18-0.066-13.995,1.806-21.955,1.538
		C51.46,337.605,71.467,352.186,84.3,333.784"/>
	<path d="M114.514,360.928c-9.762-3.804-14.756-11.118-26.692-8.079c-9.364,2.382-18.745,7.792-27.601,10.673
		c8.598,5.082,18.417,10.412,29.07,9.753C99.805,372.624,105.956,365.237,114.514,360.928"/>
	<path d="M145.415,376.663c-12.666-2.141-20.606-6.076-33.304-0.216c-8.877,4.096-17.56,10.678-27.565,10.336
		c10.998,3.516,21.643,10.686,33.818,9.847c14.722-1.014,15.077-12.664,24.954-18.303"/>
	<path d="M194.507,357.542c1.474-4.763,7.555-16.296,13.991-10.401c10.306,9.437-12.253,8.137-13.415,9.824"/>
</g>
</svg>
