<?xml version="1.0" encoding="UTF-8"?>
<!DOCTYPE svg PUBLIC "-//W3C//DTD SVG 1.1//EN" "http://www.w3.org/Graphics/SVG/1.1/DTD/svg11.dtd">
<!-- Creator: CorelDRAW X7 -->
<svg xmlns="http://www.w3.org/2000/svg" xml:space="preserve" width="261px" height="472px" version="1.1" style="shape-rendering:geometricPrecision; text-rendering:geometricPrecision; image-rendering:optimizeQuality; fill-rule:evenodd; clip-rule:evenodd"
viewBox="0 0 27430 49605"
 xmlns:xlink="http://www.w3.org/1999/xlink">
 <defs>
  <style type="text/css">
   <![CDATA[
    .fil0 {fill:#5E6B21}
    .fil1 {fill:#F5C0B8}
   ]]>
  </style>
 </defs>
 <g id="Слой_x0020_1">
  <metadata id="CorelCorpID_0Corel-Layer"/>
  <path class="fil0" d="M8413 26000l3 -7c-416,-625 -1146,-1390 -2004,-2171 -1329,809 -1915,820 -3431,345 1380,65 2113,8 3406,-367 -340,-309 -700,-620 -1068,-926 -1281,673 -2322,431 -3627,-200 1464,285 2201,406 3582,162 -439,-363 -888,-718 -1327,-1052 -1014,424 -1457,496 -2470,-75 872,111 1576,97 2438,50 -463,-350 -914,-677 -1333,-965 -651,408 -1231,138 -1881,-248 702,65 1125,164 1762,166 -544,-371 -1025,-672 -1393,-869l-572 -296 619 194c281,109 644,296 1059,542 -210,-450 -266,-495 -586,-974 541,-5 916,674 693,1037 334,202 698,438 1079,700 -80,-570 -185,-911 -334,-1507 472,467 747,950 392,1548 416,288 850,607 1281,942 45,-931 108,-1191 -254,-2014l130 46c690,398 404,1423 158,1994 434,338 866,694 1275,1053 54,-1005 156,-1621 -191,-2571 836,534 527,1834 233,2607 407,360 791,722 1133,1075 144,-1253 124,-1531 -33,-2841l0 0c626,1351 586,1592 66,2876 571,594 1018,1160 1249,1638 -12,24 -24,48 -35,72 667,-1314 682,-3242 -211,-4145 -901,-911 -930,-513 -1360,-1184 -431,-671 -1177,-341 -1840,-983 -663,-642 -851,-4 -1715,-494 -865,-491 -874,61 -1921,-123 -1047,-184 -1512,-126 -1355,374 157,500 40,2090 765,2346 725,255 -331,1254 921,1696 1252,442 -78,1270 1118,1766 1196,496 952,1188 1958,1172 1006,-15 1771,441 3621,-389z"/>
  <path class="fil0" d="M10215 49605c-3608,-9946 1549,-27837 5917,-36875 559,-1156 1763,-3511 2908,-4432 -2327,3331 -3828,8034 -4966,11823 -2931,9765 -5988,19275 -3859,29484z"/>
  <path class="fil1" d="M18488 758c420,-375 1845,-707 2749,-292 903,414 2418,1060 2940,2933 521,1873 447,2429 447,2429 0,0 1762,1570 2398,1722 637,153 566,1026 -483,1883 -1050,858 -2233,1584 -2233,1584 0,0 41,1402 710,2215 670,813 779,1130 173,1374 -606,244 -3034,851 -4863,472 -1829,-378 -2943,-685 -2943,-685 0,0 -719,2283 -3319,1516 -2600,-768 -6258,-4091 -4815,-5296 1443,-1205 1732,-1393 1732,-1393 0,0 -1672,-486 -2586,-1905 -913,-1420 -1647,-3290 -672,-3697 975,-407 3701,-355 4254,-599 553,-243 605,-297 605,-297 0,0 774,-1965 1801,-2478 1026,-513 1695,247 1695,247 0,0 340,-347 659,-297 317,49 371,102 371,102 0,0 100,-583 581,-112 481,471 400,340 799,574zm1478 2316c-277,-219 -761,-306 -1020,-42 -259,264 -127,420 435,401 562,-19 939,-193 585,-359zm665 -98c-330,-324 -1236,-772 -1744,-597 -508,175 -515,737 -115,328 402,-409 1335,143 1663,284 328,140 367,75 196,-15zm916 121c-168,-395 -1152,-1717 -1941,-1980 -761,-254 -1907,124 -2076,217 -169,93 -181,159 132,103 313,-55 1396,-210 1855,-97 458,113 1647,1304 1820,1681 133,287 270,217 210,76zm469 1106c-166,407 -614,1340 -1128,888 -515,-453 -950,-879 -271,-965 679,-85 1619,-173 1399,77zm816 -779c132,130 80,156 -521,215 -601,58 -1944,372 -2585,313 -352,-32 -523,-74 -634,-125 868,755 2229,1895 2314,2082 -129,210 -420,-152 -763,-489 -343,-336 -1991,-1666 -2466,-2106 -475,-439 -1160,-1034 -1266,-1189 -107,-156 157,103 394,205 236,102 -228,-508 -323,-886 -95,-378 82,-955 198,-1152 115,-197 286,-107 445,74 159,181 -262,-50 -339,160 -76,210 -230,525 -108,877 121,352 745,1352 1379,1947 90,85 211,193 351,316 174,34 703,193 987,141 378,-69 2556,-497 2937,-383zm-3817 3868c-6,-601 -933,-3009 -1264,-3516 -332,-506 -1017,-970 -1062,-1558 -45,-587 39,-1386 -108,-1632 -146,-247 -333,682 -248,1309 85,627 867,1651 1144,1949 277,298 1309,2810 1352,3189 43,379 202,560 186,259zm-2961 -6176c-158,302 -1402,545 -1140,1350 262,805 41,1730 -600,2290 -640,561 -347,2126 -701,1369 -354,-758 -902,-2483 -794,-3245 107,-763 1110,-2019 1636,-2463 526,-443 1850,397 1599,699zm6552 10945c556,-48 2396,1431 1703,1604 -693,172 -3898,535 -5505,171 -1608,-364 -1665,-1074 -1655,-1720 10,-645 175,-647 790,-372 615,275 2471,653 3247,530 776,-124 1103,-185 1420,-213zm-7625 -72c189,710 786,2539 -72,2647 -860,108 -3601,-1171 -4342,-2486 -741,-1316 1138,-1930 1782,-2020 644,-89 2358,969 2632,1859zm-2168 -6709c304,658 312,1419 1564,2547 1251,1129 3246,2101 2604,2389 -642,287 -2283,-43 -3706,-1699 -1422,-1656 -1346,-2302 -1519,-3094 -174,-792 784,-935 1057,-143zm-2453 2803c-915,-504 -1582,-1125 -1692,-2149 -109,-1025 656,-570 1142,104 487,673 1181,2303 550,2045zm12475 626c218,145 246,570 -47,870 -293,298 -317,-275 -779,-252 -462,23 -1776,-92 -3470,-1093 -1693,-1000 -2402,-1659 -3058,-2484 -656,-826 -286,-933 182,-335 618,789 2711,1951 4114,2677 1822,944 2803,447 3058,617zm3318 -1069c853,213 1120,1024 1,1830 -1121,807 -2756,1841 -3827,2074 -1070,232 -2407,-235 -1154,-766 1252,-530 4238,-1596 4082,-2334 -155,-738 619,-968 898,-804zm-2369 -3075c126,205 -86,1805 -851,2453 -764,648 -1906,1470 -2629,1124 -722,-346 -1508,-547 -909,-762 599,-215 2114,-256 2956,-1036 842,-780 1155,-2233 1433,-1779zm-4139 -4110c674,-137 2463,327 3397,1279 934,952 1056,2024 1269,2891 212,867 -13,2404 -507,2946 -494,541 -1600,922 -1859,888 -260,-35 -889,-65 -281,-275 609,-210 2178,-503 2347,-2021 170,-1518 -256,-3401 -1171,-4298 -915,-897 -3508,-1347 -3195,-1410z"/>
  <path class="fil0" d="M15466 23941l3 3c430,-56 1011,-239 1634,-484 -80,-894 63,-1200 696,-1864 -386,697 -543,1092 -678,1857 246,-98 499,-205 751,-317 -22,-835 369,-1312 1028,-1828 -521,686 -771,1037 -996,1814 299,-135 597,-277 883,-419 38,-633 113,-881 667,-1260 -279,423 -452,791 -647,1249 299,-150 583,-300 839,-443 -45,-442 242,-673 608,-911 -212,347 -371,541 -535,869 331,-186 609,-359 805,-500l299 -220 -258 271c-128,118 -318,258 -550,410 285,6 324,-11 653,-55 -136,282 -583,303 -714,94 -189,122 -404,250 -637,381 316,104 519,136 865,211 -361,125 -682,144 -901,-191 -255,142 -530,285 -814,423 471,260 590,359 1108,381l-57 56c-382,256 -840,-154 -1073,-426 -286,138 -580,271 -870,392 507,283 800,493 1380,555 -489,297 -1084,-194 -1409,-543 -290,119 -576,226 -845,313 612,394 761,454 1479,706l0 0c-859,-19 -974,-102 -1506,-698 -452,144 -860,232 -1166,229 -9,-12 -19,-24 -28,-36 510,680 1505,1179 2199,946 702,-234 503,-350 960,-402 457,-52 476,-522 977,-702 502,-180 219,-440 693,-762 474,-323 191,-469 553,-964 362,-495 450,-750 151,-796 -298,-47 -1092,-512 -1409,-201 -317,310 -565,-491 -1112,44 -548,536 -638,-363 -1200,129 -561,493 -857,190 -1105,715 -249,525 -679,805 -721,1974z"/>
 </g>
</svg>
